<?xml version="1.0" encoding="UTF-8" standalone="no"?><!DOCTYPE svg PUBLIC "-//W3C//DTD SVG 1.1//EN" "http://www.w3.org/Graphics/SVG/1.1/DTD/svg11.dtd"><svg width="100%" height="100%" viewBox="0 0 1067 213" version="1.1" xmlns="http://www.w3.org/2000/svg" xmlns:xlink="http://www.w3.org/1999/xlink" xml:space="preserve" xmlns:serif="http://www.serif.com/" style="fill-rule:evenodd;clip-rule:evenodd;stroke-linejoin:round;stroke-miterlimit:2;"><g><path d="M395.721,209.163l42.071,0l52.929,-143.476l-37.329,0l-34.546,104.467l-0.554,0l-35.663,-104.467l-40.116,0l53.208,143.476Z" style="fill:#f2f3f3;fill-rule:nonzero;"/><path d="M549.567,167.65c0,-22.008 24.8,-24.796 41.512,-24.796l16.154,0c0,11.146 -1.666,21.45 -7.795,29.534c-5.851,7.799 -14.763,12.816 -26.188,12.816c-13.371,0 -23.683,-5.3 -23.683,-17.554Zm-18.942,-62.404c12.533,-9.471 28.417,-15.6 44.292,-15.6c22.016,0 32.316,7.8 32.316,30.925l-20.612,0c-15.6,0 -33.984,1.391 -48.192,8.354c-14.212,6.967 -24.521,19.504 -24.521,40.954c0,27.304 24.796,42.621 50.146,42.621c17,0 35.663,-8.912 44.296,-24.792l0.563,0c0.275,4.459 0.275,13.929 1.666,21.455l32.879,0c-0.837,-11.146 -1.391,-21.175 -1.679,-32.042c-0.275,-10.588 -0.55,-21.45 -0.55,-35.938l0,-18.387c0,-42.346 -18.108,-60.454 -61.85,-60.454c-15.879,0 -35.383,4.179 -49.866,10.866l1.112,32.038Z" style="fill:#f2f3f3;"/><path d="M788.942,209.163l36.212,0l0,-208.946l-37.329,0l0,82.183l-0.554,0c-11.146,-13.65 -24.242,-20.058 -42.904,-20.058c-44.017,0 -60.179,35.104 -60.179,74.662c0,39.284 16.162,75.496 60.179,75.496c17.545,0 32.871,-5.567 44.02,-19.496l0.555,0l0,16.159Zm-65.75,-72.159c0,-19.221 6.691,-45.687 30.925,-45.687c23.958,0 33.433,25.629 33.433,45.687c0,20.338 -8.083,46.525 -32.879,46.525c-24.513,0 -31.479,-26.746 -31.479,-46.525Z" style="fill:#f2f3f3;"/><path d="M1059.55,67.638c-11.704,-2.509 -23.121,-5.296 -40.675,-5.296c-29.246,0 -56.275,13.65 -56.275,44.575c0,51.816 64.913,32.595 64.913,60.733c0,13.929 -15.042,17.554 -24.513,17.554c-12.816,0 -25.075,-3.625 -36.775,-9.475l-2.233,30.646c13.658,3.621 28.142,6.125 42.35,6.125c30.367,0 60.175,-13.367 60.175,-46.8c0,-51.817 -64.909,-37.333 -64.909,-60.175c0,-12.258 11.98,-15.879 22.005,-15.879c13.645,0 22.012,2.225 33.429,6.129l2.508,-28.137Z" style="fill:#f2f3f3;fill-rule:nonzero;"/><rect x="879.833" y="65.687" width="37.329" height="143.475" style="fill:#f2f3f3;fill-rule:nonzero;"/><rect x="879.808" y="2.275" width="37.233" height="37.229" style="fill:#f2f3f3;fill-rule:nonzero;"/><rect x="266.421" y="2.267" width="37.233" height="37.233" style="fill:#f2f3f3;fill-rule:nonzero;"/><rect x="266.421" y="65.687" width="37.333" height="143.475" style="fill:#f2f3f3;fill-rule:nonzero;"/><path d="M147.354,209.163l36.492,0l0,-52.655c-1.221,-69.496 35.758,-54.458 35.758,-54.458l0,-39.417c0,-0.404 -28.091,2.996 -35.354,25.45l-0.025,-22.408l-36.871,0.012l0,143.476Z" style="fill:#f2f3f3;fill-rule:nonzero;"/><rect x="147.067" y="2.267" width="37.229" height="37.233" style="fill:#f2f3f3;fill-rule:nonzero;"/><path d="M27.579,165.975c0,28.421 16.158,46.525 45.409,46.525c11.145,0 19.783,-1.112 27.583,-3.337l-1.117,-29.534c-3.9,2.504 -10.308,3.9 -16.991,3.9c-14.209,0 -17.555,-11.421 -17.555,-23.679l0,-66.863l33.154,0l0,-27.3l-98.062,0l0,27.3l27.579,0l0,72.988Z" style="fill:#f2f3f3;fill-rule:nonzero;"/><rect x="27.387" y="2.267" width="37.233" height="37.233" style="fill:#f2f3f3;fill-rule:nonzero;"/></g></svg>