<svg id="LOGO" xmlns="http://www.w3.org/2000/svg" viewBox="0 0 4936.56 178.93"><defs><style>.cls-1,.cls-2{fill:#1e2946;}.cls-2,.cls-4,.cls-6{fill-rule:evenodd;}.cls-3,.cls-4{fill:#010101;}.cls-5,.cls-6{fill:#fff;}</style></defs><polygon class="cls-1" points="200.55 105.89 221.87 105.89 248.7 33.18 229.78 33.18 212.27 86.13 211.99 86.13 193.92 33.18 173.59 33.18 200.55 105.89 200.55 105.89"/><path class="cls-2" d="M395.3,133.88a38.06,38.06,0,0,1,22.45-7.9c11.16,0,16.38,4,16.38,15.67H423.68c-7.9,0-17.22.7-24.42,4.23s-12.43,9.89-12.43,20.76c0,13.84,12.57,21.6,25.41,21.6,8.62,0,18.08-4.52,22.45-12.56H435a89.56,89.56,0,0,0,.84,10.87h16.67c-.43-5.65-.71-10.73-.85-16.24s-.28-10.87-.28-18.21v-9.32c0-21.46-9.18-30.64-31.35-30.64a65,65,0,0,0-25.27,5.51l.56,16.23Zm9.6,31.63c0-11.15,12.57-12.57,21-12.57h8.19c0,5.65-.85,10.87-3.95,15a16.08,16.08,0,0,1-13.27,6.5c-6.78,0-12-2.69-12-8.9Z" transform="translate(-126.38 -80.65)"/><path class="cls-2" d="M492.9,150c0-9.74,3.39-23.16,15.67-23.16s16.94,13,16.94,23.16-4.09,23.58-16.66,23.58-16-13.56-16-23.58Zm33.32,36.57h18.35V80.65H525.65V122.3h-.28c-5.65-6.91-12.28-10.16-21.74-10.16-22.31,0-30.5,17.79-30.5,37.84s8.19,38.26,30.5,38.26c8.89,0,16.66-2.82,22.31-9.88h.28v8.19Z" transform="translate(-126.38 -80.65)"/><path class="cls-1" d="M663.37,114.82c-5.93-1.27-11.72-2.68-20.62-2.68-14.82,0-28.52,6.92-28.52,22.59,0,26.26,32.9,16.52,32.9,30.78,0,7.06-7.62,8.9-12.42,8.9a41.49,41.49,0,0,1-18.64-4.81l-1.13,15.53a84.56,84.56,0,0,0,21.46,3.11c15.39,0,30.5-6.78,30.5-23.72,0-26.26-32.9-18.92-32.9-30.5,0-6.21,6.07-8,11.15-8,6.92,0,11.16,1.12,17,3.1l1.27-14.26Z" transform="translate(-126.38 -80.65)"/><polygon class="cls-1" points="445.9 105.89 464.82 105.89 464.82 33.18 445.9 33.18 445.9 105.89 445.9 105.89"/><polygon class="cls-1" points="445.89 19.91 464.76 19.91 464.76 1.04 445.89 1.04 445.89 19.91 445.89 19.91"/><polygon class="cls-1" points="135.03 19.91 153.89 19.91 153.89 1.04 135.03 1.04 135.03 19.91 135.03 19.91"/><polygon class="cls-1" points="135.03 105.89 153.94 105.89 153.94 33.18 135.03 33.18 135.03 105.89 135.03 105.89"/><path class="cls-1" d="M201.06,186.55h18.49V159.86c-.61-35.22,18.13-27.6,18.13-27.6v-20c0-.21-14.24,1.52-17.92,12.89V113.83H201.06v72.72Z" transform="translate(-126.38 -80.65)"/><polygon class="cls-1" points="74.53 19.91 93.4 19.91 93.4 1.04 74.53 1.04 74.53 19.91 74.53 19.91"/><path class="cls-1" d="M140.36,164.66c0,14.4,8.19,23.58,23,23.58a49.77,49.77,0,0,0,14-1.69l-.57-15c-2,1.27-5.22,2-8.61,2-7.2,0-8.89-5.79-8.89-12V127.67h16.8V113.83h-49.7v13.84h14v37Z" transform="translate(-126.38 -80.65)"/><polygon class="cls-1" points="13.88 19.91 32.75 19.91 32.75 1.04 13.88 1.04 13.88 19.91 13.88 19.91"/><path class="cls-3" d="M128.39,224.24h9.88a18.72,18.72,0,0,1,4.69.57,10.62,10.62,0,0,1,3.87,1.8,8.94,8.94,0,0,1,2.63,3.17,10.25,10.25,0,0,1,1,4.66v.2a10.5,10.5,0,0,1-1,4.73,8.83,8.83,0,0,1-2.63,3.19,10.63,10.63,0,0,1-3.87,1.81,19.19,19.19,0,0,1-4.69.56h-5.65v14.12h-4.23Zm10.17,17.28a8.18,8.18,0,0,0,5.69-1.77,6.61,6.61,0,0,0,1.95-5.14v-.19c0-2.47-.68-4.21-2-5.24a9.17,9.17,0,0,0-5.6-1.53h-5.94v13.87Z" transform="translate(-126.38 -80.65)"/><path class="cls-3" d="M161.87,259.48a12.25,12.25,0,0,1-3.31-.43,7.49,7.49,0,0,1-2.7-1.37,6.43,6.43,0,0,1-1.8-2.33,7.87,7.87,0,0,1-.66-3.36,6.24,6.24,0,0,1,1.07-3.7,8,8,0,0,1,2.85-2.44,14.24,14.24,0,0,1,4.09-1.33,26.45,26.45,0,0,1,4.74-.42h3.66v-1.83c0-2-.43-3.49-1.27-4.38s-2.24-1.33-4.19-1.33q-5.25,0-5.84,4.53h-4a8.58,8.58,0,0,1,1.1-3.7,7.62,7.62,0,0,1,2.29-2.46,9.4,9.4,0,0,1,3.11-1.37,15.66,15.66,0,0,1,3.58-.41,15,15,0,0,1,3.5.41,7.28,7.28,0,0,1,3,1.47,7.43,7.43,0,0,1,2,2.79,11,11,0,0,1,.77,4.43v16.8h-4v-3.22a9.7,9.7,0,0,1-3.27,2.73A10.5,10.5,0,0,1,161.87,259.48Zm.39-3.21a10.59,10.59,0,0,0,3-.41,7.25,7.25,0,0,0,2.39-1.2,5.59,5.59,0,0,0,2.17-4.52V247H166.3a21.72,21.72,0,0,0-3.53.27,10.07,10.07,0,0,0-2.82.85,4.65,4.65,0,0,0-1.85,1.54,4,4,0,0,0-.66,2.36,4.43,4.43,0,0,0,1.07,3.14Q159.59,256.27,162.26,256.27Z" transform="translate(-126.38 -80.65)"/><path class="cls-3" d="M181.15,233.59h4v4.57a11.73,11.73,0,0,1,1.33-2,8.08,8.08,0,0,1,4-2.6,11.73,11.73,0,0,1,3-.44V237a18.51,18.51,0,0,0-3.46.48,6.43,6.43,0,0,0-2.65,1.32,5.87,5.87,0,0,0-1.68,2.46,11,11,0,0,0-.58,3.87v14h-4Z" transform="translate(-126.38 -80.65)"/><path class="cls-3" d="M206.8,259.39q-3.51,0-5.19-1.85a7,7,0,0,1-1.68-4.87V237h-3.65v-3.41h3.65V227.8h4v5.79h5.94V237H204v15.28q0,3.71,3.17,3.7a8.6,8.6,0,0,0,1.7-.15,8.14,8.14,0,0,0,1.41-.39v3.41a8.45,8.45,0,0,1-1.41.39A11.2,11.2,0,0,1,206.8,259.39Z" transform="translate(-126.38 -80.65)"/><path class="cls-3" d="M237.94,259.48a12.68,12.68,0,0,1-5-1,11.82,11.82,0,0,1-3.94-2.7,12.06,12.06,0,0,1-2.58-4.11,14.08,14.08,0,0,1-.93-5.16v-.39a14.15,14.15,0,0,1,1-5.26,12.6,12.6,0,0,1,2.61-4.11A11.39,11.39,0,0,1,233,234.1a13.63,13.63,0,0,1,10,0,11.63,11.63,0,0,1,4,2.65,12.39,12.39,0,0,1,2.6,4.09,14.15,14.15,0,0,1,.95,5.26v.39a14.37,14.37,0,0,1-.95,5.28,12,12,0,0,1-2.63,4.11,11.83,11.83,0,0,1-4,2.65A12.86,12.86,0,0,1,237.94,259.48Zm.05-3.4a8.61,8.61,0,0,0,3.46-.68,7.16,7.16,0,0,0,2.63-1.94,9,9,0,0,0,1.65-3,12.26,12.26,0,0,0,.59-3.89v-.34a12.68,12.68,0,0,0-.59-4,8.7,8.7,0,0,0-1.68-3.06,7.3,7.3,0,0,0-2.63-1.93,8.4,8.4,0,0,0-3.43-.68,8.56,8.56,0,0,0-3.45.68,7.06,7.06,0,0,0-2.63,1.93,8.86,8.86,0,0,0-1.66,3,12.51,12.51,0,0,0-.58,4v.39a10.34,10.34,0,0,0,2.22,7A7.61,7.61,0,0,0,238,256.08Z" transform="translate(-126.38 -80.65)"/><path class="cls-3" d="M257,237h-3.65v-3.41H257v-4.14a8.81,8.81,0,0,1,1.9-6,7.23,7.23,0,0,1,5.7-2.14,8.77,8.77,0,0,1,1.6.12,11,11,0,0,1,1.41.37v3.45a5.82,5.82,0,0,0-1.29-.39,8.07,8.07,0,0,0-1.58-.15,3.23,3.23,0,0,0-2.84,1.21,5.36,5.36,0,0,0-.86,3.15v4.55h6.23V237h-6.23v22.05h-4Z" transform="translate(-126.38 -80.65)"/><path class="cls-3" d="M292.41,224.24h10.27L314,259.05h-8.23l-2.38-7.74H290.75l-2.38,7.74H281Zm0,21.47h9.19l-4.57-15Z" transform="translate(-126.38 -80.65)"/><path class="cls-3" d="M327.06,259.58a15.34,15.34,0,0,1-5.18-.85,11.37,11.37,0,0,1-6.91-6.57,14.28,14.28,0,0,1-1-5.53v-.39a14.29,14.29,0,0,1,1-5.52,12.47,12.47,0,0,1,2.82-4.21,12.32,12.32,0,0,1,4.19-2.6,14.34,14.34,0,0,1,5.11-.9,17.74,17.74,0,0,1,4.26.51,10.85,10.85,0,0,1,3.72,1.68,9.4,9.4,0,0,1,2.68,3.06,11.46,11.46,0,0,1,1.31,4.63h-6.66a5.16,5.16,0,0,0-1.63-3.27,5.41,5.41,0,0,0-3.53-1.07,5.5,5.5,0,0,0-4.43,2,8.43,8.43,0,0,0-1.66,5.6v.39a8.85,8.85,0,0,0,1.63,5.78,5.69,5.69,0,0,0,4.6,1.94,5.82,5.82,0,0,0,3.68-1.21,5,5,0,0,0,1.77-3.66h6.38a11.62,11.62,0,0,1-1,4.16,9.34,9.34,0,0,1-2.44,3.19,11.1,11.1,0,0,1-3.74,2.12A15.31,15.31,0,0,1,327.06,259.58Z" transform="translate(-126.38 -80.65)"/><path class="cls-3" d="M353.34,259.58a15.42,15.42,0,0,1-5.18-.85,11.37,11.37,0,0,1-6.91-6.57,14.28,14.28,0,0,1-1-5.53v-.39a14.29,14.29,0,0,1,1-5.52,12.64,12.64,0,0,1,2.83-4.21,12.28,12.28,0,0,1,4.18-2.6,14.38,14.38,0,0,1,5.11-.9,17.74,17.74,0,0,1,4.26.51,11,11,0,0,1,3.73,1.68,9.37,9.37,0,0,1,2.67,3.06,11.46,11.46,0,0,1,1.32,4.63H358.7a5.12,5.12,0,0,0-1.63-3.27,5.39,5.39,0,0,0-3.53-1.07,5.5,5.5,0,0,0-4.43,2,8.48,8.48,0,0,0-1.65,5.6v.39c0,2.56.54,4.48,1.63,5.78a5.68,5.68,0,0,0,4.6,1.94,5.79,5.79,0,0,0,3.67-1.21,5.07,5.07,0,0,0,1.78-3.66h6.37a11.62,11.62,0,0,1-1,4.16,9.32,9.32,0,0,1-2.43,3.19,11.24,11.24,0,0,1-3.75,2.12A15.31,15.31,0,0,1,353.34,259.58Z" transform="translate(-126.38 -80.65)"/><path class="cls-3" d="M379.82,259.58a15.39,15.39,0,0,1-5.3-.88,12,12,0,0,1-7-6.61,14.14,14.14,0,0,1-1-5.46v-.39a14.38,14.38,0,0,1,1-5.45,12.34,12.34,0,0,1,2.8-4.18,12.58,12.58,0,0,1,4.14-2.66,13.88,13.88,0,0,1,5.16-.94,14.77,14.77,0,0,1,4.72.75,10.94,10.94,0,0,1,3.94,2.31,11.09,11.09,0,0,1,2.73,4,15.25,15.25,0,0,1,1,5.86v2H373.69a7.44,7.44,0,0,0,1.78,4.94,7.14,7.14,0,0,0,8.27.75,4.28,4.28,0,0,0,1.58-2.58H392a9.11,9.11,0,0,1-3.77,6.36A14.36,14.36,0,0,1,379.82,259.58Zm5.36-16a6.44,6.44,0,0,0-1.61-4.31,6.08,6.08,0,0,0-7.86.1,7.05,7.05,0,0,0-1.92,4.21Z" transform="translate(-126.38 -80.65)"/><path class="cls-3" d="M394.81,233.59h7.06v4a8.73,8.73,0,0,1,3-3.26,9.27,9.27,0,0,1,5.26-1.36,9.76,9.76,0,0,1,3.45.58,7.57,7.57,0,0,1,2.73,1.75,8.56,8.56,0,0,1,1.75,3.09,13.87,13.87,0,0,1,.63,4.41v16.21h-7.06V243.86a5.81,5.81,0,0,0-1.07-3.87,4.25,4.25,0,0,0-3.4-1.24,5,5,0,0,0-5.31,5.6v14.7h-7.06Z" transform="translate(-126.38 -80.65)"/><path class="cls-3" d="M432.19,259.53q-4,0-6.13-2c-1.4-1.34-2.09-3.35-2.09-6V238.6h-3.26v-5H424v-5.5h7v5.5h5.35v5H431v12.27a3.2,3.2,0,0,0,.7,2.26,2.78,2.78,0,0,0,2.12.76,7.2,7.2,0,0,0,1.44-.13,6.33,6.33,0,0,0,1.24-.36v5.45a15.19,15.19,0,0,1-1.81.46A12.15,12.15,0,0,1,432.19,259.53Z" transform="translate(-126.38 -80.65)"/><path class="cls-3" d="M447.87,259.58a10.34,10.34,0,0,1-3.44-.56,7.26,7.26,0,0,1-2.75-1.73,8.08,8.08,0,0,1-1.82-3,12.68,12.68,0,0,1-.66-4.31v-16.4h7V249a5.66,5.66,0,0,0,1.12,3.82,4.14,4.14,0,0,0,3.31,1.29,5,5,0,0,0,5.3-5.6V233.59h7v25.46h-7v-4a8.2,8.2,0,0,1-2.94,3.24A9.22,9.22,0,0,1,447.87,259.58Z" transform="translate(-126.38 -80.65)"/><path class="cls-3" d="M467.33,233.59h7.06v4.87a9.46,9.46,0,0,1,3.16-3.9,9.2,9.2,0,0,1,5.07-1.36v6.57a10.57,10.57,0,0,0-6.09,1.41q-2.14,1.47-2.14,5.11v12.76h-7.06Z" transform="translate(-126.38 -80.65)"/><path class="cls-3" d="M496.63,259.58a15.39,15.39,0,0,1-5.3-.88,12,12,0,0,1-7-6.61,14.14,14.14,0,0,1-1-5.46v-.39a14.38,14.38,0,0,1,1-5.45,12.34,12.34,0,0,1,2.8-4.18,12.58,12.58,0,0,1,4.14-2.66,13.88,13.88,0,0,1,5.16-.94,14.77,14.77,0,0,1,4.72.75,10.85,10.85,0,0,1,3.94,2.31,11.09,11.09,0,0,1,2.73,4,15.25,15.25,0,0,1,1,5.86v2H490.5a7.44,7.44,0,0,0,1.78,4.94,7.14,7.14,0,0,0,8.27.75,4.24,4.24,0,0,0,1.58-2.58h6.67a9.11,9.11,0,0,1-3.77,6.36A14.34,14.34,0,0,1,496.63,259.58Zm5.36-16a6.44,6.44,0,0,0-1.61-4.31,6.08,6.08,0,0,0-7.86.1,7.05,7.05,0,0,0-1.92,4.21Z" transform="translate(-126.38 -80.65)"/><polygon class="cls-1" points="2696.72 123.39 2710.51 123.39 2727.86 76.36 2715.63 76.36 2704.3 110.6 2704.12 110.6 2692.43 76.36 2679.28 76.36 2696.72 123.39 2696.72 123.39"/><path class="cls-2" d="M2867.32,170a24.59,24.59,0,0,1,14.52-5.12c7.22,0,10.59,2.56,10.59,10.14h-6.75c-5.12,0-11.14.46-15.8,2.74s-8,6.39-8,13.42c0,9,8.13,14,16.44,14,5.57,0,11.69-2.93,14.52-8.13h.18a56.5,56.5,0,0,0,.55,7h10.78c-.28-3.65-.46-6.94-.55-10.5s-.18-7-.18-11.78v-6c0-13.88-5.94-19.81-20.28-19.81a42.08,42.08,0,0,0-16.34,3.56l.36,10.5Zm6.21,20.45c0-7.21,8.13-8.12,13.61-8.12h5.29c0,3.65-.54,7-2.55,9.68a10.41,10.41,0,0,1-8.59,4.2c-4.38,0-7.76-1.74-7.76-5.76Z" transform="translate(-126.38 -80.65)"/><path class="cls-2" d="M2930.44,180.39c0-6.3,2.2-15,10.14-15s11,8.4,11,15-2.65,15.25-10.78,15.25-10.32-8.77-10.32-15.25ZM2952,204h11.87V135.55h-12.23v26.94h-.18c-3.66-4.47-7.95-6.57-14.07-6.57-14.42,0-19.72,11.5-19.72,24.47s5.3,24.75,19.72,24.75c5.75,0,10.78-1.83,14.43-6.4h.18V204Z" transform="translate(-126.38 -80.65)"/><path class="cls-1" d="M3040.7,157.65a56.53,56.53,0,0,0-13.34-1.73c-9.58,0-18.44,4.47-18.44,14.61,0,17,21.27,10.68,21.27,19.9,0,4.57-4.93,5.76-8,5.76a26.89,26.89,0,0,1-12.06-3.11l-.73,10a55.23,55.23,0,0,0,13.89,2c9.95,0,19.72-4.39,19.72-15.35,0-17-21.28-12.23-21.28-19.72,0-4,3.93-5.21,7.22-5.21a30.14,30.14,0,0,1,10.95,2l.83-9.22Z" transform="translate(-126.38 -80.65)"/><polygon class="cls-1" points="2855.41 123.39 2867.64 123.39 2867.64 76.36 2855.41 76.36 2855.41 123.39 2855.41 123.39"/><polygon class="cls-1" points="2855.4 67.78 2867.6 67.78 2867.6 55.57 2855.4 55.57 2855.4 67.78 2855.4 67.78"/><polygon class="cls-1" points="2654.34 67.77 2666.55 67.77 2666.55 55.57 2654.34 55.57 2654.34 67.77 2654.34 67.77"/><polygon class="cls-1" points="2654.34 123.39 2666.58 123.39 2666.58 76.36 2654.34 76.36 2654.34 123.39 2654.34 123.39"/><path class="cls-1" d="M2741.69,204h12V186.78c-.4-22.78,11.72-17.85,11.72-17.85V156c0-.13-9.21,1-11.59,8.34V157h-12.09v47Z" transform="translate(-126.38 -80.65)"/><polygon class="cls-1" points="2615.22 67.77 2627.42 67.77 2627.42 55.57 2615.22 55.57 2615.22 67.77 2615.22 67.77"/><path class="cls-1" d="M2702.43,189.89c0,9.31,5.3,15.25,14.89,15.25a32.23,32.23,0,0,0,9-1.1l-.37-9.68a10.9,10.9,0,0,1-5.57,1.28c-4.65,0-5.75-3.74-5.75-7.76V166h10.87v-9h-32.15v9h9v23.93Z" transform="translate(-126.38 -80.65)"/><polygon class="cls-1" points="2575.99 67.77 2588.2 67.77 2588.2 55.57 2575.99 55.57 2575.99 67.77 2575.99 67.77"/><path class="cls-3" d="M3076.09,157h6.39a12.35,12.35,0,0,1,3,.37,6.91,6.91,0,0,1,2.51,1.17,5.75,5.75,0,0,1,1.69,2.05,6.6,6.6,0,0,1,.63,3v.13a6.82,6.82,0,0,1-.63,3.06,5.7,5.7,0,0,1-1.69,2.06,6.91,6.91,0,0,1-2.51,1.17,12.36,12.36,0,0,1-3,.36h-3.65v9.13h-2.74Zm6.58,11.18a5.28,5.28,0,0,0,3.69-1.15,4.25,4.25,0,0,0,1.26-3.32v-.13a3.94,3.94,0,0,0-1.33-3.38,5.92,5.92,0,0,0-3.62-1h-3.84v9Z" transform="translate(-126.38 -80.65)"/><path class="cls-3" d="M3097.75,179.76a7.85,7.85,0,0,1-2.14-.29,4.89,4.89,0,0,1-1.75-.88,4.16,4.16,0,0,1-1.16-1.51,5.15,5.15,0,0,1-.43-2.17,4,4,0,0,1,.7-2.39,5.08,5.08,0,0,1,1.84-1.58,8.9,8.9,0,0,1,2.64-.86,17.27,17.27,0,0,1,3.07-.27h2.36v-1.19a4,4,0,0,0-.82-2.83,3.6,3.6,0,0,0-2.7-.86q-3.41,0-3.78,2.93H3093a5.65,5.65,0,0,1,.7-2.4,5.13,5.13,0,0,1,1.48-1.59,6.23,6.23,0,0,1,2-.88,9.8,9.8,0,0,1,2.31-.26,9.46,9.46,0,0,1,2.27.26,4.81,4.81,0,0,1,1.92.95,4.7,4.7,0,0,1,1.32,1.81,7,7,0,0,1,.51,2.86v10.86h-2.62v-2.08a6.19,6.19,0,0,1-2.11,1.77A6.68,6.68,0,0,1,3097.75,179.76Zm.25-2.08a6.69,6.69,0,0,0,1.94-.27,4.55,4.55,0,0,0,1.54-.77,3.71,3.71,0,0,0,1-1.24,3.59,3.59,0,0,0,.38-1.69v-2h-2.26a13.76,13.76,0,0,0-2.29.17,6.39,6.39,0,0,0-1.82.55,3,3,0,0,0-1.2,1,2.65,2.65,0,0,0-.42,1.53,2.85,2.85,0,0,0,.69,2A3.24,3.24,0,0,0,3098,177.68Z" transform="translate(-126.38 -80.65)"/><path class="cls-3" d="M3110.22,163h2.61v3a7.59,7.59,0,0,1,.87-1.28,5,5,0,0,1,1.11-1,5.3,5.3,0,0,1,1.48-.68,7.57,7.57,0,0,1,1.95-.28v2.45a11.4,11.4,0,0,0-2.23.32,4.15,4.15,0,0,0-1.72.85,3.69,3.69,0,0,0-1.08,1.59,7.11,7.11,0,0,0-.38,2.5v9h-2.61Z" transform="translate(-126.38 -80.65)"/><path class="cls-3" d="M3126.81,179.69a4.35,4.35,0,0,1-3.36-1.19,4.53,4.53,0,0,1-1.08-3.15V165.21H3120V163h2.36v-3.75H3125V163h3.84v2.2H3125v9.89c0,1.59.68,2.39,2.05,2.39a5.16,5.16,0,0,0,1.1-.1,5.56,5.56,0,0,0,.91-.25v2.21a5.45,5.45,0,0,1-.91.25A7.86,7.86,0,0,1,3126.81,179.69Z" transform="translate(-126.38 -80.65)"/><path class="cls-3" d="M3147,179.76a8.21,8.21,0,0,1-3.24-.63,7.63,7.63,0,0,1-2.55-1.75,8.07,8.07,0,0,1-1.67-2.66,9.13,9.13,0,0,1-.6-3.34v-.25a9.1,9.1,0,0,1,.62-3.4,8.26,8.26,0,0,1,1.68-2.66,7.53,7.53,0,0,1,2.55-1.73,8.88,8.88,0,0,1,6.47,0,7.61,7.61,0,0,1,2.57,1.71,8.1,8.1,0,0,1,1.68,2.65,9.1,9.1,0,0,1,.61,3.4v.25a9.24,9.24,0,0,1-.61,3.42,8,8,0,0,1-1.7,2.66,7.71,7.71,0,0,1-2.57,1.71A8.32,8.32,0,0,1,3147,179.76Zm0-2.21a5.43,5.43,0,0,0,2.24-.44,4.62,4.62,0,0,0,1.7-1.25,5.69,5.69,0,0,0,1.07-2,8,8,0,0,0,.38-2.52v-.22a8.35,8.35,0,0,0-.38-2.57,5.46,5.46,0,0,0-1.09-2,4.79,4.79,0,0,0-1.7-1.25,5.46,5.46,0,0,0-2.22-.44,5.55,5.55,0,0,0-2.23.44,4.62,4.62,0,0,0-1.7,1.25,5.79,5.79,0,0,0-1.07,2,8.13,8.13,0,0,0-.38,2.55v.25a6.73,6.73,0,0,0,1.43,4.5A4.94,4.94,0,0,0,3147,177.55Z" transform="translate(-126.38 -80.65)"/><path class="cls-3" d="M3159.29,165.21h-2.36V163h2.36v-2.68a5.67,5.67,0,0,1,1.23-3.9,4.68,4.68,0,0,1,3.68-1.39,5.86,5.86,0,0,1,1,.08c.27.06.58.14.91.24v2.23a4.34,4.34,0,0,0-.83-.25,5.69,5.69,0,0,0-1-.09,2.09,2.09,0,0,0-1.84.78,3.44,3.44,0,0,0-.56,2V163h4v2.2h-4v14.26h-2.61Z" transform="translate(-126.38 -80.65)"/><path class="cls-3" d="M3182.18,157h6.64l7.3,22.51h-5.32l-1.54-5h-8.15l-1.55,5h-4.78Zm0,13.89h5.95l-3-9.73Z" transform="translate(-126.38 -80.65)"/><path class="cls-3" d="M3204.59,179.82a10.15,10.15,0,0,1-3.35-.55,7.34,7.34,0,0,1-4.47-4.25,9.28,9.28,0,0,1-.65-3.57v-.26a9.23,9.23,0,0,1,.66-3.57,7.74,7.74,0,0,1,4.54-4.41,9.42,9.42,0,0,1,3.3-.58,11.52,11.52,0,0,1,2.76.33,6.9,6.9,0,0,1,2.4,1.09,6.1,6.1,0,0,1,1.74,2,7.51,7.51,0,0,1,.85,3h-4.32a3.28,3.28,0,0,0-1.05-2.11,3.49,3.49,0,0,0-2.28-.69,3.55,3.55,0,0,0-2.87,1.27,5.51,5.51,0,0,0-1.07,3.63v.25a5.64,5.64,0,0,0,1.06,3.73,3.65,3.65,0,0,0,3,1.26,3.74,3.74,0,0,0,2.38-.78,3.29,3.29,0,0,0,1.15-2.37h4.12a7.34,7.34,0,0,1-.66,2.69,5.92,5.92,0,0,1-1.58,2.06,7.07,7.07,0,0,1-2.42,1.37A9.66,9.66,0,0,1,3204.59,179.82Z" transform="translate(-126.38 -80.65)"/><path class="cls-3" d="M3221.59,179.82a10.15,10.15,0,0,1-3.35-.55,7.27,7.27,0,0,1-4.47-4.25,9.28,9.28,0,0,1-.65-3.57v-.26a9.23,9.23,0,0,1,.66-3.57,7.76,7.76,0,0,1,4.53-4.41,9.48,9.48,0,0,1,3.31-.58,11.44,11.44,0,0,1,2.75.33,6.87,6.87,0,0,1,2.41,1.09,6.07,6.07,0,0,1,1.73,2,7.19,7.19,0,0,1,.85,3h-4.31a3.33,3.33,0,0,0-1.05-2.11,3.5,3.5,0,0,0-2.29-.69,3.54,3.54,0,0,0-2.86,1.27,5.51,5.51,0,0,0-1.07,3.63v.25a5.7,5.7,0,0,0,1,3.73,3.68,3.68,0,0,0,3,1.26,3.76,3.76,0,0,0,2.38-.78,3.25,3.25,0,0,0,1.14-2.37h4.13a7.76,7.76,0,0,1-.66,2.69,6,6,0,0,1-1.58,2.06,7.07,7.07,0,0,1-2.42,1.37A9.71,9.71,0,0,1,3221.59,179.82Z" transform="translate(-126.38 -80.65)"/><path class="cls-3" d="M3238.71,179.82a10,10,0,0,1-3.43-.57,7.45,7.45,0,0,1-2.71-1.67,7.37,7.37,0,0,1-1.81-2.61,9.06,9.06,0,0,1-.64-3.52v-.26a9.2,9.2,0,0,1,.64-3.52,8.06,8.06,0,0,1,1.81-2.71,8.22,8.22,0,0,1,2.68-1.72,9.14,9.14,0,0,1,3.34-.61,9.37,9.37,0,0,1,3,.49,7,7,0,0,1,2.55,1.49,7.33,7.33,0,0,1,1.76,2.6,9.88,9.88,0,0,1,.66,3.79v1.26h-11.86a4.78,4.78,0,0,0,1.15,3.2,4.63,4.63,0,0,0,5.35.49,2.83,2.83,0,0,0,1-1.67h4.31a5.87,5.87,0,0,1-2.44,4.11A9.27,9.27,0,0,1,3238.71,179.82Zm3.47-10.36a4.21,4.21,0,0,0-1-2.78,3.95,3.95,0,0,0-5.09.06,4.58,4.58,0,0,0-1.24,2.72Z" transform="translate(-126.38 -80.65)"/><path class="cls-3" d="M3248.41,163H3253v2.61a5.6,5.6,0,0,1,2-2.11,6.06,6.06,0,0,1,3.4-.88,6.36,6.36,0,0,1,2.23.38,4.88,4.88,0,0,1,1.76,1.13,5.7,5.7,0,0,1,1.14,2,9,9,0,0,1,.4,2.85v10.48h-4.56v-9.82a3.77,3.77,0,0,0-.69-2.5,2.75,2.75,0,0,0-2.21-.8,3.47,3.47,0,0,0-2.45.89,3.54,3.54,0,0,0-1,2.73v9.5h-4.56Z" transform="translate(-126.38 -80.65)"/><path class="cls-3" d="M3272.58,179.79a5.48,5.48,0,0,1-4-1.31,5.18,5.18,0,0,1-1.36-3.89v-8.34h-2.1V163h2.1v-3.56h4.54V163h3.46v3.24h-3.46v7.93a2.12,2.12,0,0,0,.45,1.47,1.82,1.82,0,0,0,1.37.49,5.28,5.28,0,0,0,.93-.08,4.12,4.12,0,0,0,.8-.24v3.53c-.31.1-.7.2-1.16.3A8.46,8.46,0,0,1,3272.58,179.79Z" transform="translate(-126.38 -80.65)"/><path class="cls-3" d="M3282.72,179.82a6.63,6.63,0,0,1-2.22-.36,4.8,4.8,0,0,1-1.78-1.12,5.26,5.26,0,0,1-1.18-1.94,8.25,8.25,0,0,1-.42-2.78V163h4.53v10a3.7,3.7,0,0,0,.72,2.47,2.68,2.68,0,0,0,2.14.83,3.53,3.53,0,0,0,2.44-.89,3.48,3.48,0,0,0,1-2.73V163h4.53v16.46H3288v-2.58A5.3,5.3,0,0,1,3286,179,5.94,5.94,0,0,1,3282.72,179.82Z" transform="translate(-126.38 -80.65)"/><path class="cls-3" d="M3295.31,163h4.57v3.15a6,6,0,0,1,2-2.52,5.89,5.89,0,0,1,3.28-.88V167a6.81,6.81,0,0,0-3.94.91,3.72,3.72,0,0,0-1.38,3.31v8.24h-4.57Z" transform="translate(-126.38 -80.65)"/><path class="cls-3" d="M3314.26,179.82a10,10,0,0,1-3.43-.57,7.45,7.45,0,0,1-2.71-1.67,7.37,7.37,0,0,1-1.81-2.61,9.06,9.06,0,0,1-.64-3.52v-.26a9.2,9.2,0,0,1,.64-3.52,8.06,8.06,0,0,1,1.81-2.71,8.22,8.22,0,0,1,2.68-1.72,9.14,9.14,0,0,1,3.34-.61,9.37,9.37,0,0,1,3.05.49,7.11,7.11,0,0,1,2.55,1.49,7.33,7.33,0,0,1,1.76,2.6,9.88,9.88,0,0,1,.66,3.79v1.26H3310.3a4.83,4.83,0,0,0,1.14,3.2,4.64,4.64,0,0,0,5.36.49,2.83,2.83,0,0,0,1-1.67h4.31a5.87,5.87,0,0,1-2.44,4.11A9.27,9.27,0,0,1,3314.26,179.82Zm3.46-10.36a4.15,4.15,0,0,0-1-2.78,3.95,3.95,0,0,0-5.09.06,4.58,4.58,0,0,0-1.24,2.72Z" transform="translate(-126.38 -80.65)"/><polygon class="cls-3" points="1070.94 105.89 1092.26 105.89 1119.09 33.18 1100.17 33.18 1082.66 86.13 1082.38 86.13 1064.31 33.18 1043.98 33.18 1070.94 105.89 1070.94 105.89"/><path class="cls-4" d="M1265.69,133.88a38.06,38.06,0,0,1,22.45-7.9c11.16,0,16.38,4,16.38,15.67h-10.45c-7.9,0-17.22.7-24.42,4.23s-12.43,9.89-12.43,20.76c0,13.84,12.57,21.6,25.41,21.6,8.62,0,18.08-4.52,22.45-12.56h.29a89.56,89.56,0,0,0,.84,10.87h16.67c-.43-5.65-.71-10.73-.85-16.24s-.28-10.87-.28-18.21v-9.32c0-21.46-9.18-30.64-31.35-30.64a65,65,0,0,0-25.27,5.51l.56,16.23Zm9.6,31.63c0-11.15,12.57-12.57,21-12.57h8.19c0,5.65-.85,10.87-4,15a16.08,16.08,0,0,1-13.27,6.5c-6.78,0-12-2.69-12-8.9Z" transform="translate(-126.38 -80.65)"/><path class="cls-4" d="M1363.29,150c0-9.74,3.39-23.16,15.67-23.16s16.94,13,16.94,23.16-4.09,23.58-16.66,23.58-16-13.56-16-23.58Zm33.32,36.57H1415V80.65H1396V122.3h-.28c-5.65-6.91-12.28-10.16-21.74-10.16-22.31,0-30.5,17.79-30.5,37.84s8.19,38.26,30.5,38.26c8.89,0,16.66-2.82,22.31-9.88h.28v8.19Z" transform="translate(-126.38 -80.65)"/><path class="cls-3" d="M1533.76,114.82c-5.93-1.27-11.72-2.68-20.62-2.68-14.82,0-28.52,6.92-28.52,22.59,0,26.26,32.9,16.52,32.9,30.78,0,7.06-7.62,8.9-12.42,8.9a41.49,41.49,0,0,1-18.64-4.81l-1.13,15.53a84.56,84.56,0,0,0,21.46,3.11c15.39,0,30.5-6.78,30.5-23.72,0-26.26-32.9-18.92-32.9-30.5,0-6.21,6.07-8,11.15-8,6.92,0,11.16,1.12,17,3.1l1.27-14.26Z" transform="translate(-126.38 -80.65)"/><polygon class="cls-3" points="1316.29 105.89 1335.21 105.89 1335.21 33.18 1316.29 33.18 1316.29 105.89 1316.29 105.89"/><polygon class="cls-3" points="1316.28 19.91 1335.15 19.91 1335.15 1.04 1316.28 1.04 1316.28 19.91 1316.28 19.91"/><polygon class="cls-3" points="1005.41 19.91 1024.28 19.91 1024.28 1.04 1005.41 1.04 1005.41 19.91 1005.41 19.91"/><polygon class="cls-3" points="1005.41 105.89 1024.34 105.89 1024.34 33.18 1005.41 33.18 1005.41 105.89 1005.41 105.89"/><path class="cls-3" d="M1071.45,186.55h18.49V159.86c-.61-35.22,18.13-27.6,18.13-27.6v-20c0-.21-14.24,1.52-17.92,12.89V113.83h-18.69v72.72Z" transform="translate(-126.38 -80.65)"/><polygon class="cls-3" points="944.92 19.91 963.79 19.91 963.79 1.04 944.92 1.04 944.92 19.91 944.92 19.91"/><path class="cls-3" d="M1010.75,164.66c0,14.4,8.19,23.58,23,23.58a49.77,49.77,0,0,0,14-1.69l-.57-15c-2,1.27-5.22,2-8.61,2-7.2,0-8.89-5.79-8.89-12V127.67h16.8V113.83h-49.7v13.84h14v37Z" transform="translate(-126.38 -80.65)"/><polygon class="cls-3" points="884.27 19.91 903.14 19.91 903.14 1.04 884.27 1.04 884.27 19.91 884.27 19.91"/><path class="cls-3" d="M998.78,224.24h9.88a18.72,18.72,0,0,1,4.69.57,10.62,10.62,0,0,1,3.87,1.8,8.94,8.94,0,0,1,2.63,3.17,10.25,10.25,0,0,1,1,4.66v.2a10.5,10.5,0,0,1-1,4.73,8.83,8.83,0,0,1-2.63,3.19,10.63,10.63,0,0,1-3.87,1.81,19.19,19.19,0,0,1-4.69.56H1003v14.12h-4.23ZM1009,241.52a8.18,8.18,0,0,0,5.69-1.77,6.61,6.61,0,0,0,2-5.14v-.19c0-2.47-.68-4.21-2-5.24a9.17,9.17,0,0,0-5.6-1.53H1003v13.87Z" transform="translate(-126.38 -80.65)"/><path class="cls-3" d="M1032.26,259.48a12.25,12.25,0,0,1-3.31-.43,7.49,7.49,0,0,1-2.7-1.37,6.43,6.43,0,0,1-1.8-2.33,7.87,7.87,0,0,1-.66-3.36,6.24,6.24,0,0,1,1.07-3.7,8,8,0,0,1,2.85-2.44,14.24,14.24,0,0,1,4.09-1.33,26.45,26.45,0,0,1,4.74-.42h3.66v-1.83c0-2-.43-3.49-1.27-4.38s-2.24-1.33-4.19-1.33q-5.25,0-5.84,4.53h-4a8.58,8.58,0,0,1,1.1-3.7,7.62,7.62,0,0,1,2.29-2.46,9.4,9.4,0,0,1,3.11-1.37,15.66,15.66,0,0,1,3.58-.41,15,15,0,0,1,3.5.41,7.28,7.28,0,0,1,3,1.47,7.43,7.43,0,0,1,2,2.79,11,11,0,0,1,.77,4.43v16.8h-4v-3.22a9.7,9.7,0,0,1-3.27,2.73A10.5,10.5,0,0,1,1032.26,259.48Zm.39-3.21a10.59,10.59,0,0,0,3-.41,7.25,7.25,0,0,0,2.39-1.2,5.59,5.59,0,0,0,2.17-4.52V247h-3.51a21.72,21.72,0,0,0-3.53.27,10.07,10.07,0,0,0-2.82.85,4.65,4.65,0,0,0-1.85,1.54,4,4,0,0,0-.66,2.36,4.43,4.43,0,0,0,1.07,3.14Q1030,256.27,1032.65,256.27Z" transform="translate(-126.38 -80.65)"/><path class="cls-3" d="M1051.54,233.59h4v4.57a11.73,11.73,0,0,1,1.33-2,8.08,8.08,0,0,1,4-2.6,11.73,11.73,0,0,1,3-.44V237a18.51,18.51,0,0,0-3.46.48,6.43,6.43,0,0,0-2.65,1.32,5.87,5.87,0,0,0-1.68,2.46,11,11,0,0,0-.58,3.87v14h-4Z" transform="translate(-126.38 -80.65)"/><path class="cls-3" d="M1077.19,259.39q-3.51,0-5.19-1.85a7,7,0,0,1-1.68-4.87V237h-3.65v-3.41h3.65V227.8h4v5.79h5.94V237h-5.94v15.28q0,3.71,3.17,3.7a8.6,8.6,0,0,0,1.7-.15,8.14,8.14,0,0,0,1.41-.39v3.41a8.45,8.45,0,0,1-1.41.39A11.2,11.2,0,0,1,1077.19,259.39Z" transform="translate(-126.38 -80.65)"/><path class="cls-3" d="M1108.33,259.48a12.68,12.68,0,0,1-5-1,11.82,11.82,0,0,1-3.94-2.7,12.06,12.06,0,0,1-2.58-4.11,14.08,14.08,0,0,1-.93-5.16v-.39a14.15,14.15,0,0,1,1-5.26,12.6,12.6,0,0,1,2.61-4.11,11.39,11.39,0,0,1,3.94-2.68,13.63,13.63,0,0,1,10,0,11.63,11.63,0,0,1,4,2.65,12.39,12.39,0,0,1,2.6,4.09,14.15,14.15,0,0,1,1,5.26v.39a14.37,14.37,0,0,1-1,5.28,12,12,0,0,1-2.63,4.11,11.83,11.83,0,0,1-4,2.65A12.86,12.86,0,0,1,1108.33,259.48Zm.05-3.4a8.61,8.61,0,0,0,3.46-.68,7.16,7.16,0,0,0,2.63-1.94,9,9,0,0,0,1.65-3,12.26,12.26,0,0,0,.59-3.89v-.34a12.68,12.68,0,0,0-.59-4,8.7,8.7,0,0,0-1.68-3.06,7.3,7.3,0,0,0-2.63-1.93,8.4,8.4,0,0,0-3.43-.68,8.56,8.56,0,0,0-3.45.68,7.06,7.06,0,0,0-2.63,1.93,8.86,8.86,0,0,0-1.66,3,12.51,12.51,0,0,0-.58,4v.39a10.34,10.34,0,0,0,2.22,7A7.61,7.61,0,0,0,1108.38,256.08Z" transform="translate(-126.38 -80.65)"/><path class="cls-3" d="M1127.41,237h-3.65v-3.41h3.65v-4.14a8.81,8.81,0,0,1,1.9-6,7.23,7.23,0,0,1,5.7-2.14,8.77,8.77,0,0,1,1.6.12,11,11,0,0,1,1.41.37v3.45a5.82,5.82,0,0,0-1.29-.39,8.07,8.07,0,0,0-1.58-.15,3.23,3.23,0,0,0-2.84,1.21,5.36,5.36,0,0,0-.86,3.15v4.55h6.23V237h-6.23v22.05h-4Z" transform="translate(-126.38 -80.65)"/><path class="cls-3" d="M1162.8,224.24h10.27l11.29,34.81h-8.23l-2.38-7.74h-12.61l-2.38,7.74h-7.4Zm0,21.47H1172l-4.57-15Z" transform="translate(-126.38 -80.65)"/><path class="cls-3" d="M1197.45,259.58a15.34,15.34,0,0,1-5.18-.85,11.37,11.37,0,0,1-6.91-6.57,14.28,14.28,0,0,1-1-5.53v-.39a14.29,14.29,0,0,1,1-5.52,12.47,12.47,0,0,1,2.82-4.21,12.32,12.32,0,0,1,4.19-2.6,14.34,14.34,0,0,1,5.11-.9,17.74,17.74,0,0,1,4.26.51,10.85,10.85,0,0,1,3.72,1.68,9.4,9.4,0,0,1,2.68,3.06,11.46,11.46,0,0,1,1.31,4.63h-6.66a5.16,5.16,0,0,0-1.63-3.27,5.41,5.41,0,0,0-3.53-1.07,5.5,5.5,0,0,0-4.43,2,8.43,8.43,0,0,0-1.66,5.6v.39a8.85,8.85,0,0,0,1.63,5.78,5.69,5.69,0,0,0,4.6,1.94,5.82,5.82,0,0,0,3.68-1.21,5,5,0,0,0,1.77-3.66h6.38a11.62,11.62,0,0,1-1,4.16,9.34,9.34,0,0,1-2.44,3.19,11.1,11.1,0,0,1-3.74,2.12A15.31,15.31,0,0,1,1197.45,259.58Z" transform="translate(-126.38 -80.65)"/><path class="cls-3" d="M1223.73,259.58a15.42,15.42,0,0,1-5.18-.85,11.37,11.37,0,0,1-6.91-6.57,14.28,14.28,0,0,1-1-5.53v-.39a14.29,14.29,0,0,1,1-5.52,12.64,12.64,0,0,1,2.83-4.21,12.28,12.28,0,0,1,4.18-2.6,14.38,14.38,0,0,1,5.11-.9,17.74,17.74,0,0,1,4.26.51,11,11,0,0,1,3.73,1.68,9.37,9.37,0,0,1,2.67,3.06,11.46,11.46,0,0,1,1.32,4.63h-6.67a5.12,5.12,0,0,0-1.63-3.27,5.39,5.39,0,0,0-3.53-1.07,5.5,5.5,0,0,0-4.43,2,8.48,8.48,0,0,0-1.65,5.6v.39c0,2.56.54,4.48,1.63,5.78a5.68,5.68,0,0,0,4.6,1.94,5.79,5.79,0,0,0,3.67-1.21,5.07,5.07,0,0,0,1.78-3.66h6.37a11.62,11.62,0,0,1-1,4.16,9.32,9.32,0,0,1-2.43,3.19,11.24,11.24,0,0,1-3.75,2.12A15.31,15.31,0,0,1,1223.73,259.58Z" transform="translate(-126.38 -80.65)"/><path class="cls-3" d="M1250.21,259.58a15.39,15.39,0,0,1-5.3-.88,12,12,0,0,1-7-6.61,14.14,14.14,0,0,1-1-5.46v-.39a14.38,14.38,0,0,1,1-5.45,12.34,12.34,0,0,1,2.8-4.18,12.58,12.58,0,0,1,4.14-2.66A13.88,13.88,0,0,1,1250,233a14.77,14.77,0,0,1,4.72.75,10.94,10.94,0,0,1,3.94,2.31,11.09,11.09,0,0,1,2.73,4,15.25,15.25,0,0,1,1,5.86v2h-18.35a7.44,7.44,0,0,0,1.78,4.94,7.14,7.14,0,0,0,8.27.75,4.28,4.28,0,0,0,1.58-2.58h6.67a9.11,9.11,0,0,1-3.77,6.36A14.36,14.36,0,0,1,1250.21,259.58Zm5.36-16a6.44,6.44,0,0,0-1.61-4.31,6.08,6.08,0,0,0-7.86.1,7.05,7.05,0,0,0-1.92,4.21Z" transform="translate(-126.38 -80.65)"/><path class="cls-3" d="M1265.2,233.59h7.06v4a8.73,8.73,0,0,1,3-3.26,9.27,9.27,0,0,1,5.26-1.36,9.76,9.76,0,0,1,3.45.58,7.57,7.57,0,0,1,2.73,1.75,8.56,8.56,0,0,1,1.75,3.09,13.87,13.87,0,0,1,.63,4.41v16.21H1282V243.86A5.81,5.81,0,0,0,1281,240a4.25,4.25,0,0,0-3.4-1.24,5,5,0,0,0-5.31,5.6v14.7h-7.06Z" transform="translate(-126.38 -80.65)"/><path class="cls-3" d="M1302.58,259.53q-4,0-6.13-2c-1.4-1.34-2.09-3.35-2.09-6V238.6h-3.26v-5h3.26v-5.5h7v5.5h5.35v5h-5.35v12.27a3.2,3.2,0,0,0,.7,2.26,2.78,2.78,0,0,0,2.12.76,7.2,7.2,0,0,0,1.44-.13,6.33,6.33,0,0,0,1.24-.36v5.45a15.19,15.19,0,0,1-1.81.46A12.15,12.15,0,0,1,1302.58,259.53Z" transform="translate(-126.38 -80.65)"/><path class="cls-3" d="M1318.26,259.58a10.34,10.34,0,0,1-3.44-.56,7.26,7.26,0,0,1-2.75-1.73,8.08,8.08,0,0,1-1.82-3,12.68,12.68,0,0,1-.66-4.31v-16.4h7V249a5.66,5.66,0,0,0,1.12,3.82,4.14,4.14,0,0,0,3.31,1.29,5,5,0,0,0,5.3-5.6V233.59h7v25.46h-7v-4a8.2,8.2,0,0,1-2.94,3.24A9.22,9.22,0,0,1,1318.26,259.58Z" transform="translate(-126.38 -80.65)"/><path class="cls-3" d="M1337.72,233.59h7.06v4.87a9.46,9.46,0,0,1,3.16-3.9,9.2,9.2,0,0,1,5.07-1.36v6.57a10.57,10.57,0,0,0-6.09,1.41q-2.14,1.47-2.14,5.11v12.76h-7.06Z" transform="translate(-126.38 -80.65)"/><path class="cls-3" d="M1367,259.58a15.39,15.39,0,0,1-5.3-.88,12,12,0,0,1-7-6.61,14.14,14.14,0,0,1-1-5.46v-.39a14.38,14.38,0,0,1,1-5.45,12.34,12.34,0,0,1,2.8-4.18,12.58,12.58,0,0,1,4.14-2.66,13.88,13.88,0,0,1,5.16-.94,14.77,14.77,0,0,1,4.72.75,10.85,10.85,0,0,1,3.94,2.31,11.09,11.09,0,0,1,2.73,4,15.25,15.25,0,0,1,1,5.86v2h-18.35a7.44,7.44,0,0,0,1.78,4.94,7.14,7.14,0,0,0,8.27.75,4.24,4.24,0,0,0,1.58-2.58h6.67a9.11,9.11,0,0,1-3.77,6.36A14.34,14.34,0,0,1,1367,259.58Zm5.36-16a6.44,6.44,0,0,0-1.61-4.31,6.08,6.08,0,0,0-7.86.1,7.05,7.05,0,0,0-1.92,4.21Z" transform="translate(-126.38 -80.65)"/><polygon class="cls-5" points="1941.33 105.89 1962.65 105.89 1989.48 33.18 1970.56 33.18 1953.05 86.13 1952.77 86.13 1934.7 33.18 1914.37 33.18 1941.33 105.89 1941.33 105.89"/><path class="cls-6" d="M2136.08,133.88a38.06,38.06,0,0,1,22.45-7.9c11.16,0,16.38,4,16.38,15.67h-10.45c-7.9,0-17.22.7-24.42,4.23s-12.43,9.89-12.43,20.76c0,13.84,12.57,21.6,25.41,21.6,8.62,0,18.08-4.52,22.45-12.56h.29a89.56,89.56,0,0,0,.84,10.87h16.67c-.43-5.65-.71-10.73-.85-16.24s-.28-10.87-.28-18.21v-9.32c0-21.46-9.18-30.64-31.35-30.64a65,65,0,0,0-25.27,5.51l.56,16.23Zm9.6,31.63c0-11.15,12.57-12.57,21-12.57h8.19c0,5.65-.85,10.87-3.95,15a16.08,16.08,0,0,1-13.27,6.5c-6.78,0-12-2.69-12-8.9Z" transform="translate(-126.38 -80.65)"/><path class="cls-6" d="M2233.68,150c0-9.74,3.39-23.16,15.67-23.16s16.94,13,16.94,23.16-4.09,23.58-16.66,23.58-16-13.56-16-23.58ZM2267,186.55h18.35V80.65h-18.92V122.3h-.28c-5.65-6.91-12.28-10.16-21.74-10.16-22.31,0-30.5,17.79-30.5,37.84s8.19,38.26,30.5,38.26c8.89,0,16.66-2.82,22.31-9.88h.28v8.19Z" transform="translate(-126.38 -80.65)"/><path class="cls-5" d="M2404.15,114.82c-5.93-1.27-11.72-2.68-20.62-2.68-14.82,0-28.52,6.92-28.52,22.59,0,26.26,32.9,16.52,32.9,30.78,0,7.06-7.62,8.9-12.42,8.9a41.49,41.49,0,0,1-18.64-4.81l-1.13,15.53a84.56,84.56,0,0,0,21.46,3.11c15.39,0,30.5-6.78,30.5-23.72,0-26.26-32.9-18.92-32.9-30.5,0-6.21,6.07-8,11.15-8,6.92,0,11.16,1.12,17,3.1l1.27-14.26Z" transform="translate(-126.38 -80.65)"/><polygon class="cls-5" points="2186.68 105.89 2205.6 105.89 2205.6 33.18 2186.68 33.18 2186.68 105.89 2186.68 105.89"/><polygon class="cls-5" points="2186.67 19.91 2205.54 19.91 2205.54 1.04 2186.67 1.04 2186.67 19.91 2186.67 19.91"/><polygon class="cls-5" points="1875.81 19.91 1894.67 19.91 1894.67 1.04 1875.81 1.04 1875.81 19.91 1875.81 19.91"/><polygon class="cls-5" points="1875.81 105.89 1894.72 105.89 1894.72 33.18 1875.81 33.18 1875.81 105.89 1875.81 105.89"/><path class="cls-5" d="M1941.84,186.55h18.49V159.86c-.61-35.22,18.13-27.6,18.13-27.6v-20c0-.21-14.24,1.52-17.92,12.89V113.83h-18.69v72.72Z" transform="translate(-126.38 -80.65)"/><polygon class="cls-5" points="1815.32 19.91 1834.18 19.91 1834.18 1.04 1815.32 1.04 1815.32 19.91 1815.32 19.91"/><path class="cls-5" d="M1881.14,164.66c0,14.4,8.19,23.58,23,23.58a49.77,49.77,0,0,0,14-1.69l-.57-15c-2,1.27-5.22,2-8.61,2-7.2,0-8.89-5.79-8.89-12V127.67h16.8V113.83h-49.7v13.84h14v37Z" transform="translate(-126.38 -80.65)"/><polygon class="cls-5" points="1754.66 19.91 1773.53 19.91 1773.53 1.04 1754.66 1.04 1754.66 19.91 1754.66 19.91"/><path class="cls-5" d="M1869.17,224.24h9.88a18.72,18.72,0,0,1,4.69.57,10.62,10.62,0,0,1,3.87,1.8,8.94,8.94,0,0,1,2.63,3.17,10.25,10.25,0,0,1,1,4.66v.2a10.5,10.5,0,0,1-1,4.73,8.83,8.83,0,0,1-2.63,3.19,10.63,10.63,0,0,1-3.87,1.81,19.19,19.19,0,0,1-4.69.56h-5.65v14.12h-4.23Zm10.17,17.28a8.18,8.18,0,0,0,5.69-1.77,6.61,6.61,0,0,0,2-5.14v-.19c0-2.47-.68-4.21-2-5.24a9.17,9.17,0,0,0-5.6-1.53h-5.94v13.87Z" transform="translate(-126.38 -80.65)"/><path class="cls-5" d="M1902.65,259.48a12.25,12.25,0,0,1-3.31-.43,7.49,7.49,0,0,1-2.7-1.37,6.43,6.43,0,0,1-1.8-2.33,7.87,7.87,0,0,1-.66-3.36,6.24,6.24,0,0,1,1.07-3.7,8,8,0,0,1,2.85-2.44,14.24,14.24,0,0,1,4.09-1.33,26.45,26.45,0,0,1,4.74-.42h3.66v-1.83c0-2-.43-3.49-1.27-4.38s-2.24-1.33-4.19-1.33q-5.25,0-5.84,4.53h-4a8.58,8.58,0,0,1,1.1-3.7,7.62,7.62,0,0,1,2.29-2.46,9.4,9.4,0,0,1,3.11-1.37,15.66,15.66,0,0,1,3.58-.41,15,15,0,0,1,3.5.41,7.28,7.28,0,0,1,3,1.47,7.43,7.43,0,0,1,2,2.79,11,11,0,0,1,.77,4.43v16.8h-4v-3.22a9.7,9.7,0,0,1-3.27,2.73A10.5,10.5,0,0,1,1902.65,259.48Zm.39-3.21a10.59,10.59,0,0,0,3-.41,7.25,7.25,0,0,0,2.39-1.2,5.59,5.59,0,0,0,2.17-4.52V247h-3.51a21.72,21.72,0,0,0-3.53.27,10.07,10.07,0,0,0-2.82.85,4.65,4.65,0,0,0-1.85,1.54,4,4,0,0,0-.66,2.36,4.43,4.43,0,0,0,1.07,3.14Q1900.37,256.27,1903,256.27Z" transform="translate(-126.38 -80.65)"/><path class="cls-5" d="M1921.93,233.59h4v4.57a11.73,11.73,0,0,1,1.33-2,8.08,8.08,0,0,1,4-2.6,11.73,11.73,0,0,1,3-.44V237a18.51,18.51,0,0,0-3.46.48,6.43,6.43,0,0,0-2.65,1.32,5.87,5.87,0,0,0-1.68,2.46,11,11,0,0,0-.58,3.87v14h-4Z" transform="translate(-126.38 -80.65)"/><path class="cls-5" d="M1947.58,259.39q-3.51,0-5.19-1.85a7,7,0,0,1-1.68-4.87V237h-3.65v-3.41h3.65V227.8h4v5.79h5.94V237h-5.94v15.28q0,3.71,3.17,3.7a8.6,8.6,0,0,0,1.7-.15,8.14,8.14,0,0,0,1.41-.39v3.41a8.45,8.45,0,0,1-1.41.39A11.2,11.2,0,0,1,1947.58,259.39Z" transform="translate(-126.38 -80.65)"/><path class="cls-5" d="M1978.72,259.48a12.68,12.68,0,0,1-5-1,11.82,11.82,0,0,1-3.94-2.7,12.06,12.06,0,0,1-2.58-4.11,14.08,14.08,0,0,1-.93-5.16v-.39a14.15,14.15,0,0,1,1-5.26,12.6,12.6,0,0,1,2.61-4.11,11.39,11.39,0,0,1,3.94-2.68,13.63,13.63,0,0,1,10,0,11.63,11.63,0,0,1,4,2.65,12.39,12.39,0,0,1,2.6,4.09,14.15,14.15,0,0,1,1,5.26v.39a14.37,14.37,0,0,1-1,5.28,12,12,0,0,1-2.63,4.11,11.83,11.83,0,0,1-4,2.65A12.86,12.86,0,0,1,1978.72,259.48Zm0-3.4a8.61,8.61,0,0,0,3.46-.68,7.16,7.16,0,0,0,2.63-1.94,9,9,0,0,0,1.65-3,12.26,12.26,0,0,0,.59-3.89v-.34a12.68,12.68,0,0,0-.59-4,8.7,8.7,0,0,0-1.68-3.06,7.3,7.3,0,0,0-2.63-1.93,8.4,8.4,0,0,0-3.43-.68,8.56,8.56,0,0,0-3.45.68,7.06,7.06,0,0,0-2.63,1.93,8.86,8.86,0,0,0-1.66,3,12.51,12.51,0,0,0-.58,4v.39a10.34,10.34,0,0,0,2.22,7A7.61,7.61,0,0,0,1978.77,256.08Z" transform="translate(-126.38 -80.65)"/><path class="cls-5" d="M1997.8,237h-3.65v-3.41h3.65v-4.14a8.81,8.81,0,0,1,1.9-6,7.23,7.23,0,0,1,5.7-2.14,8.77,8.77,0,0,1,1.6.12,11,11,0,0,1,1.41.37v3.45a5.82,5.82,0,0,0-1.29-.39,8.07,8.07,0,0,0-1.58-.15,3.23,3.23,0,0,0-2.84,1.21,5.36,5.36,0,0,0-.86,3.15v4.55h6.23V237h-6.23v22.05h-4Z" transform="translate(-126.38 -80.65)"/><path class="cls-5" d="M2033.19,224.24h10.27l11.29,34.81h-8.23l-2.38-7.74h-12.61l-2.38,7.74h-7.4Zm0,21.47h9.19l-4.57-15Z" transform="translate(-126.38 -80.65)"/><path class="cls-5" d="M2067.84,259.58a15.34,15.34,0,0,1-5.18-.85,11.37,11.37,0,0,1-6.91-6.57,14.28,14.28,0,0,1-1-5.53v-.39a14.29,14.29,0,0,1,1-5.52,12.47,12.47,0,0,1,2.82-4.21,12.32,12.32,0,0,1,4.19-2.6,14.34,14.34,0,0,1,5.11-.9,17.74,17.74,0,0,1,4.26.51,10.85,10.85,0,0,1,3.72,1.68,9.4,9.4,0,0,1,2.68,3.06,11.46,11.46,0,0,1,1.31,4.63h-6.66a5.16,5.16,0,0,0-1.63-3.27,5.41,5.41,0,0,0-3.53-1.07,5.5,5.5,0,0,0-4.43,2,8.43,8.43,0,0,0-1.66,5.6v.39a8.85,8.85,0,0,0,1.63,5.78,5.69,5.69,0,0,0,4.6,1.94,5.82,5.82,0,0,0,3.68-1.21,5,5,0,0,0,1.77-3.66H2080a11.62,11.62,0,0,1-1,4.16,9.34,9.34,0,0,1-2.44,3.19,11.1,11.1,0,0,1-3.74,2.12A15.31,15.31,0,0,1,2067.84,259.58Z" transform="translate(-126.38 -80.65)"/><path class="cls-5" d="M2094.12,259.58a15.42,15.42,0,0,1-5.18-.85,11.37,11.37,0,0,1-6.91-6.57,14.28,14.28,0,0,1-1-5.53v-.39a14.29,14.29,0,0,1,1-5.52,12.64,12.64,0,0,1,2.83-4.21,12.28,12.28,0,0,1,4.18-2.6,14.38,14.38,0,0,1,5.11-.9,17.74,17.74,0,0,1,4.26.51,11,11,0,0,1,3.73,1.68,9.37,9.37,0,0,1,2.67,3.06,11.46,11.46,0,0,1,1.32,4.63h-6.67a5.12,5.12,0,0,0-1.63-3.27,5.39,5.39,0,0,0-3.53-1.07,5.5,5.5,0,0,0-4.43,2,8.48,8.48,0,0,0-1.65,5.6v.39c0,2.56.54,4.48,1.63,5.78a5.68,5.68,0,0,0,4.6,1.94,5.79,5.79,0,0,0,3.67-1.21,5.07,5.07,0,0,0,1.78-3.66h6.37a11.62,11.62,0,0,1-1,4.16,9.32,9.32,0,0,1-2.43,3.19,11.24,11.24,0,0,1-3.75,2.12A15.31,15.31,0,0,1,2094.12,259.58Z" transform="translate(-126.38 -80.65)"/><path class="cls-5" d="M2120.6,259.58a15.39,15.39,0,0,1-5.3-.88,12,12,0,0,1-7-6.61,14.14,14.14,0,0,1-1-5.46v-.39a14.38,14.38,0,0,1,1-5.45,12.34,12.34,0,0,1,2.8-4.18,12.58,12.58,0,0,1,4.14-2.66,13.88,13.88,0,0,1,5.16-.94,14.77,14.77,0,0,1,4.72.75,10.94,10.94,0,0,1,3.94,2.31,11.09,11.09,0,0,1,2.73,4,15.25,15.25,0,0,1,1,5.86v2h-18.35a7.44,7.44,0,0,0,1.78,4.94,7.14,7.14,0,0,0,8.27.75,4.28,4.28,0,0,0,1.58-2.58h6.67a9.11,9.11,0,0,1-3.77,6.36A14.36,14.36,0,0,1,2120.6,259.58Zm5.36-16a6.44,6.44,0,0,0-1.61-4.31,6.08,6.08,0,0,0-7.86.1,7.05,7.05,0,0,0-1.92,4.21Z" transform="translate(-126.38 -80.65)"/><path class="cls-5" d="M2135.59,233.59h7.06v4a8.73,8.73,0,0,1,3-3.26,9.27,9.27,0,0,1,5.26-1.36,9.76,9.76,0,0,1,3.45.58,7.57,7.57,0,0,1,2.73,1.75,8.56,8.56,0,0,1,1.75,3.09,13.87,13.87,0,0,1,.63,4.41v16.21h-7.06V243.86a5.81,5.81,0,0,0-1.07-3.87,4.25,4.25,0,0,0-3.4-1.24,5,5,0,0,0-5.31,5.6v14.7h-7.06Z" transform="translate(-126.38 -80.65)"/><path class="cls-5" d="M2173,259.53q-4,0-6.13-2c-1.4-1.34-2.09-3.35-2.09-6V238.6h-3.26v-5h3.26v-5.5h7v5.5h5.35v5h-5.35v12.27a3.2,3.2,0,0,0,.7,2.26,2.78,2.78,0,0,0,2.12.76,7.2,7.2,0,0,0,1.44-.13,6.33,6.33,0,0,0,1.24-.36v5.45a15.19,15.19,0,0,1-1.81.46A12.15,12.15,0,0,1,2173,259.53Z" transform="translate(-126.38 -80.65)"/><path class="cls-5" d="M2188.65,259.58a10.34,10.34,0,0,1-3.44-.56,7.26,7.26,0,0,1-2.75-1.73,8.08,8.08,0,0,1-1.82-3A12.68,12.68,0,0,1,2180,250v-16.4h7V249a5.66,5.66,0,0,0,1.12,3.82,4.14,4.14,0,0,0,3.31,1.29,5,5,0,0,0,5.3-5.6V233.59h7v25.46h-7v-4a8.2,8.2,0,0,1-2.94,3.24A9.22,9.22,0,0,1,2188.65,259.58Z" transform="translate(-126.38 -80.65)"/><path class="cls-5" d="M2208.11,233.59h7.06v4.87a9.46,9.46,0,0,1,3.16-3.9,9.2,9.2,0,0,1,5.07-1.36v6.57a10.57,10.57,0,0,0-6.09,1.41q-2.14,1.47-2.14,5.11v12.76h-7.06Z" transform="translate(-126.38 -80.65)"/><path class="cls-5" d="M2237.41,259.58a15.39,15.39,0,0,1-5.3-.88,12,12,0,0,1-7-6.61,14.14,14.14,0,0,1-1-5.46v-.39a14.38,14.38,0,0,1,1-5.45,12.34,12.34,0,0,1,2.8-4.18,12.58,12.58,0,0,1,4.14-2.66,13.88,13.88,0,0,1,5.16-.94,14.77,14.77,0,0,1,4.72.75,10.85,10.85,0,0,1,3.94,2.31,11.09,11.09,0,0,1,2.73,4,15.25,15.25,0,0,1,1,5.86v2h-18.35a7.44,7.44,0,0,0,1.78,4.94,7.14,7.14,0,0,0,8.27.75,4.24,4.24,0,0,0,1.58-2.58h6.67a9.11,9.11,0,0,1-3.77,6.36A14.34,14.34,0,0,1,2237.41,259.58Zm5.36-16a6.44,6.44,0,0,0-1.61-4.31,6.08,6.08,0,0,0-7.86.1,7.05,7.05,0,0,0-1.92,4.21Z" transform="translate(-126.38 -80.65)"/><polygon class="cls-3" points="3567.11 123.39 3580.9 123.39 3598.25 76.36 3586.02 76.36 3574.7 110.6 3574.51 110.6 3562.82 76.36 3549.67 76.36 3567.11 123.39 3567.11 123.39"/><path class="cls-4" d="M3737.71,170a24.59,24.59,0,0,1,14.52-5.12c7.22,0,10.59,2.56,10.59,10.14h-6.75c-5.12,0-11.14.46-15.8,2.74s-8,6.39-8,13.42c0,9,8.13,14,16.44,14,5.57,0,11.69-2.93,14.52-8.13h.18a56.5,56.5,0,0,0,.55,7h10.78c-.28-3.65-.46-6.94-.55-10.5s-.18-7-.18-11.78v-6c0-13.88-5.94-19.81-20.28-19.81a42.08,42.08,0,0,0-16.34,3.56l.36,10.5Zm6.21,20.45c0-7.21,8.13-8.12,13.61-8.12h5.29c0,3.65-.54,7-2.55,9.68a10.41,10.41,0,0,1-8.59,4.2c-4.38,0-7.76-1.74-7.76-5.76Z" transform="translate(-126.38 -80.65)"/><path class="cls-4" d="M3800.83,180.39c0-6.3,2.2-15,10.14-15s11,8.4,11,15-2.65,15.25-10.78,15.25-10.32-8.77-10.32-15.25ZM3822.38,204h11.87V135.55H3822v26.94h-.18c-3.66-4.47-8-6.57-14.07-6.57-14.42,0-19.72,11.5-19.72,24.47s5.3,24.75,19.72,24.75c5.75,0,10.78-1.83,14.43-6.4h.18V204Z" transform="translate(-126.38 -80.65)"/><path class="cls-3" d="M3911.09,157.65a56.53,56.53,0,0,0-13.34-1.73c-9.58,0-18.44,4.47-18.44,14.61,0,17,21.27,10.68,21.27,19.9,0,4.57-4.93,5.76-8,5.76a26.89,26.89,0,0,1-12.06-3.11l-.73,10a55.23,55.23,0,0,0,13.89,2c9.95,0,19.72-4.39,19.72-15.35,0-17-21.28-12.23-21.28-19.72,0-4,3.93-5.21,7.22-5.21a30.14,30.14,0,0,1,11,2l.83-9.22Z" transform="translate(-126.38 -80.65)"/><polygon class="cls-3" points="3725.8 123.39 3738.03 123.39 3738.03 76.36 3725.8 76.36 3725.8 123.39 3725.8 123.39"/><polygon class="cls-3" points="3725.79 67.78 3737.99 67.78 3737.99 55.57 3725.79 55.57 3725.79 67.78 3725.79 67.78"/><polygon class="cls-3" points="3524.73 67.77 3536.94 67.77 3536.94 55.57 3524.73 55.57 3524.73 67.77 3524.73 67.77"/><polygon class="cls-3" points="3524.73 123.39 3536.97 123.39 3536.97 76.36 3524.73 76.36 3524.73 123.39 3524.73 123.39"/><path class="cls-3" d="M3612.08,204h12V186.78c-.4-22.78,11.72-17.85,11.72-17.85V156c0-.13-9.21,1-11.59,8.34V157h-12.09v47Z" transform="translate(-126.38 -80.65)"/><polygon class="cls-3" points="3485.61 67.77 3497.81 67.77 3497.81 55.57 3485.61 55.57 3485.61 67.77 3485.61 67.77"/><path class="cls-3" d="M3572.82,189.89c0,9.31,5.3,15.25,14.89,15.25a32.23,32.23,0,0,0,9-1.1l-.37-9.68a10.9,10.9,0,0,1-5.57,1.28c-4.65,0-5.75-3.74-5.75-7.76V166h10.87v-9h-32.15v9h9v23.93Z" transform="translate(-126.38 -80.65)"/><polygon class="cls-3" points="3446.38 67.77 3458.59 67.77 3458.59 55.57 3446.38 55.57 3446.38 67.77 3446.38 67.77"/><path class="cls-3" d="M3946.48,157h6.39a12.35,12.35,0,0,1,3,.37,6.91,6.91,0,0,1,2.51,1.17,5.75,5.75,0,0,1,1.69,2.05,6.6,6.6,0,0,1,.63,3v.13a6.82,6.82,0,0,1-.63,3.06,5.7,5.7,0,0,1-1.69,2.06,6.91,6.91,0,0,1-2.51,1.17,12.36,12.36,0,0,1-3,.36h-3.65v9.13h-2.74Zm6.58,11.18a5.28,5.28,0,0,0,3.69-1.15,4.25,4.25,0,0,0,1.26-3.32v-.13a3.94,3.94,0,0,0-1.33-3.38,5.92,5.92,0,0,0-3.62-1h-3.84v9Z" transform="translate(-126.38 -80.65)"/><path class="cls-3" d="M3968.14,179.76a7.85,7.85,0,0,1-2.14-.29,4.89,4.89,0,0,1-1.75-.88,4.16,4.16,0,0,1-1.16-1.51,5.15,5.15,0,0,1-.43-2.17,4,4,0,0,1,.7-2.39,5.08,5.08,0,0,1,1.84-1.58,8.9,8.9,0,0,1,2.64-.86,17.27,17.27,0,0,1,3.07-.27h2.36v-1.19a4,4,0,0,0-.82-2.83,3.6,3.6,0,0,0-2.7-.86q-3.4,0-3.78,2.93h-2.61a5.65,5.65,0,0,1,.7-2.4,5.13,5.13,0,0,1,1.48-1.59,6.23,6.23,0,0,1,2-.88,9.8,9.8,0,0,1,2.31-.26,9.46,9.46,0,0,1,2.27.26,4.81,4.81,0,0,1,1.92.95,4.7,4.7,0,0,1,1.32,1.81,7,7,0,0,1,.51,2.86v10.86h-2.62v-2.08a6.19,6.19,0,0,1-2.11,1.77A6.68,6.68,0,0,1,3968.14,179.76Zm.25-2.08a6.69,6.69,0,0,0,1.94-.27,4.55,4.55,0,0,0,1.54-.77,3.71,3.71,0,0,0,1-1.24,3.59,3.59,0,0,0,.38-1.69v-2H3971a13.76,13.76,0,0,0-2.29.17,6.39,6.39,0,0,0-1.82.55,3,3,0,0,0-1.2,1,2.65,2.65,0,0,0-.42,1.53,2.85,2.85,0,0,0,.69,2A3.24,3.24,0,0,0,3968.39,177.68Z" transform="translate(-126.38 -80.65)"/><path class="cls-3" d="M3980.61,163h2.61v3a7.59,7.59,0,0,1,.87-1.28,5,5,0,0,1,1.11-1,5.3,5.3,0,0,1,1.48-.68,7.57,7.57,0,0,1,2-.28v2.45a11.4,11.4,0,0,0-2.23.32,4.15,4.15,0,0,0-1.72.85,3.69,3.69,0,0,0-1.08,1.59,7.11,7.11,0,0,0-.38,2.5v9h-2.61Z" transform="translate(-126.38 -80.65)"/><path class="cls-3" d="M3997.2,179.69a4.35,4.35,0,0,1-3.36-1.19,4.53,4.53,0,0,1-1.08-3.15V165.21h-2.36V163h2.36v-3.75h2.61V163h3.84v2.2h-3.84v9.89c0,1.59.68,2.39,2.05,2.39a5.16,5.16,0,0,0,1.1-.1,5.56,5.56,0,0,0,.91-.25v2.21a5.45,5.45,0,0,1-.91.25A7.86,7.86,0,0,1,3997.2,179.69Z" transform="translate(-126.38 -80.65)"/><path class="cls-3" d="M4017.34,179.76a8.21,8.21,0,0,1-3.24-.63,7.63,7.63,0,0,1-2.55-1.75,8.07,8.07,0,0,1-1.67-2.66,9.13,9.13,0,0,1-.6-3.34v-.25a9.1,9.1,0,0,1,.62-3.4,8.26,8.26,0,0,1,1.68-2.66,7.53,7.53,0,0,1,2.55-1.73,8.88,8.88,0,0,1,6.47,0,7.61,7.61,0,0,1,2.57,1.71,8.1,8.1,0,0,1,1.68,2.65,9.1,9.1,0,0,1,.61,3.4v.25a9.24,9.24,0,0,1-.61,3.42,8,8,0,0,1-1.7,2.66,7.71,7.71,0,0,1-2.57,1.71A8.32,8.32,0,0,1,4017.34,179.76Zm0-2.21a5.43,5.43,0,0,0,2.24-.44,4.62,4.62,0,0,0,1.7-1.25,5.69,5.69,0,0,0,1.07-2,8,8,0,0,0,.38-2.52v-.22a8.35,8.35,0,0,0-.38-2.57,5.46,5.46,0,0,0-1.09-2,4.79,4.79,0,0,0-1.7-1.25,5.46,5.46,0,0,0-2.22-.44,5.55,5.55,0,0,0-2.23.44,4.62,4.62,0,0,0-1.7,1.25,5.79,5.79,0,0,0-1.07,2,8.13,8.13,0,0,0-.38,2.55v.25a6.73,6.73,0,0,0,1.43,4.5A4.94,4.94,0,0,0,4017.37,177.55Z" transform="translate(-126.38 -80.65)"/><path class="cls-3" d="M4029.68,165.21h-2.36V163h2.36v-2.68a5.67,5.67,0,0,1,1.23-3.9,4.68,4.68,0,0,1,3.68-1.39,5.86,5.86,0,0,1,1,.08c.27.06.58.14.91.24v2.23a4.34,4.34,0,0,0-.83-.25,5.69,5.69,0,0,0-1-.09,2.09,2.09,0,0,0-1.84.78,3.44,3.44,0,0,0-.56,2V163h4v2.2h-4v14.26h-2.61Z" transform="translate(-126.38 -80.65)"/><path class="cls-3" d="M4052.57,157h6.64l7.3,22.51h-5.32l-1.54-5h-8.15l-1.55,5h-4.78Zm0,13.89h6l-3-9.73Z" transform="translate(-126.38 -80.65)"/><path class="cls-3" d="M4075,179.82a10.15,10.15,0,0,1-3.35-.55,7.34,7.34,0,0,1-4.47-4.25,9.28,9.28,0,0,1-.65-3.57v-.26a9.23,9.23,0,0,1,.66-3.57,7.74,7.74,0,0,1,4.54-4.41,9.42,9.42,0,0,1,3.3-.58,11.52,11.52,0,0,1,2.76.33,6.9,6.9,0,0,1,2.4,1.09,6.1,6.1,0,0,1,1.74,2,7.51,7.51,0,0,1,.85,3h-4.32a3.28,3.28,0,0,0-1.05-2.11,3.49,3.49,0,0,0-2.28-.69,3.55,3.55,0,0,0-2.87,1.27,5.51,5.51,0,0,0-1.07,3.63v.25a5.64,5.64,0,0,0,1.06,3.73,3.65,3.65,0,0,0,3,1.26,3.74,3.74,0,0,0,2.38-.78,3.29,3.29,0,0,0,1.15-2.37h4.12a7.34,7.34,0,0,1-.66,2.69,5.92,5.92,0,0,1-1.58,2.06,7.07,7.07,0,0,1-2.42,1.37A9.66,9.66,0,0,1,4075,179.82Z" transform="translate(-126.38 -80.65)"/><path class="cls-3" d="M4092,179.82a10.15,10.15,0,0,1-3.35-.55,7.27,7.27,0,0,1-4.47-4.25,9.28,9.28,0,0,1-.65-3.57v-.26a9.23,9.23,0,0,1,.66-3.57,7.76,7.76,0,0,1,4.53-4.41,9.48,9.48,0,0,1,3.31-.58,11.44,11.44,0,0,1,2.75.33,6.87,6.87,0,0,1,2.41,1.09,6.07,6.07,0,0,1,1.73,2,7.19,7.19,0,0,1,.85,3h-4.31a3.33,3.33,0,0,0-1.05-2.11,3.5,3.5,0,0,0-2.29-.69,3.54,3.54,0,0,0-2.86,1.27,5.51,5.51,0,0,0-1.07,3.63v.25a5.7,5.7,0,0,0,1,3.73,3.68,3.68,0,0,0,3,1.26,3.76,3.76,0,0,0,2.38-.78,3.25,3.25,0,0,0,1.14-2.37h4.13a7.76,7.76,0,0,1-.66,2.69,6,6,0,0,1-1.58,2.06,7.07,7.07,0,0,1-2.42,1.37A9.71,9.71,0,0,1,4092,179.82Z" transform="translate(-126.38 -80.65)"/><path class="cls-3" d="M4109.1,179.82a10,10,0,0,1-3.43-.57,7.45,7.45,0,0,1-2.71-1.67,7.37,7.37,0,0,1-1.81-2.61,9.06,9.06,0,0,1-.64-3.52v-.26a9.2,9.2,0,0,1,.64-3.52A8.06,8.06,0,0,1,4103,165a8.22,8.22,0,0,1,2.68-1.72,9.14,9.14,0,0,1,3.34-.61,9.37,9.37,0,0,1,3.05.49,7,7,0,0,1,2.55,1.49,7.33,7.33,0,0,1,1.76,2.6A9.88,9.88,0,0,1,4117,171v1.26h-11.86a4.78,4.78,0,0,0,1.15,3.2,4.63,4.63,0,0,0,5.35.49,2.83,2.83,0,0,0,1-1.67H4117a5.87,5.87,0,0,1-2.44,4.11A9.27,9.27,0,0,1,4109.1,179.82Zm3.47-10.36a4.21,4.21,0,0,0-1-2.78,3.95,3.95,0,0,0-5.09.06,4.58,4.58,0,0,0-1.24,2.72Z" transform="translate(-126.38 -80.65)"/><path class="cls-3" d="M4118.8,163h4.56v2.61a5.6,5.6,0,0,1,2-2.11,6.06,6.06,0,0,1,3.4-.88,6.36,6.36,0,0,1,2.23.38,4.88,4.88,0,0,1,1.76,1.13,5.7,5.7,0,0,1,1.14,2,9,9,0,0,1,.4,2.85v10.48h-4.56v-9.82a3.77,3.77,0,0,0-.69-2.5,2.75,2.75,0,0,0-2.21-.8,3.47,3.47,0,0,0-2.45.89,3.54,3.54,0,0,0-1,2.73v9.5h-4.56Z" transform="translate(-126.38 -80.65)"/><path class="cls-3" d="M4143,179.79a5.48,5.48,0,0,1-4-1.31,5.18,5.18,0,0,1-1.36-3.89v-8.34h-2.1V163h2.1v-3.56h4.54V163h3.46v3.24h-3.46v7.93a2.12,2.12,0,0,0,.45,1.47,1.82,1.82,0,0,0,1.37.49,5.28,5.28,0,0,0,.93-.08,4.12,4.12,0,0,0,.8-.24v3.53c-.31.1-.7.2-1.16.3A8.46,8.46,0,0,1,4143,179.79Z" transform="translate(-126.38 -80.65)"/><path class="cls-3" d="M4153.11,179.82a6.63,6.63,0,0,1-2.22-.36,4.8,4.8,0,0,1-1.78-1.12,5.26,5.26,0,0,1-1.18-1.94,8.25,8.25,0,0,1-.42-2.78V163H4152v10a3.7,3.7,0,0,0,.72,2.47,2.68,2.68,0,0,0,2.14.83,3.53,3.53,0,0,0,2.44-.89,3.48,3.48,0,0,0,1-2.73V163h4.53v16.46h-4.53v-2.58a5.3,5.3,0,0,1-1.91,2.09A5.94,5.94,0,0,1,4153.11,179.82Z" transform="translate(-126.38 -80.65)"/><path class="cls-3" d="M4165.7,163h4.57v3.15a6,6,0,0,1,2-2.52,5.89,5.89,0,0,1,3.28-.88V167a6.81,6.81,0,0,0-3.94.91,3.72,3.72,0,0,0-1.38,3.31v8.24h-4.57Z" transform="translate(-126.38 -80.65)"/><path class="cls-3" d="M4184.65,179.82a10,10,0,0,1-3.43-.57,7.45,7.45,0,0,1-2.71-1.67,7.37,7.37,0,0,1-1.81-2.61,9.06,9.06,0,0,1-.64-3.52v-.26a9.2,9.2,0,0,1,.64-3.52,8.06,8.06,0,0,1,1.81-2.71,8.22,8.22,0,0,1,2.68-1.72,9.14,9.14,0,0,1,3.34-.61,9.37,9.37,0,0,1,3.05.49,7.11,7.11,0,0,1,2.55,1.49,7.33,7.33,0,0,1,1.76,2.6,9.88,9.88,0,0,1,.66,3.79v1.26h-11.86a4.83,4.83,0,0,0,1.14,3.2,4.64,4.64,0,0,0,5.36.49,2.83,2.83,0,0,0,1-1.67h4.31a5.87,5.87,0,0,1-2.44,4.11A9.27,9.27,0,0,1,4184.65,179.82Zm3.46-10.36a4.15,4.15,0,0,0-1-2.78,3.95,3.95,0,0,0-5.09.06,4.58,4.58,0,0,0-1.24,2.72Z" transform="translate(-126.38 -80.65)"/><polygon class="cls-5" points="4437.51 123.39 4451.29 123.39 4468.64 76.36 4456.41 76.36 4445.09 110.6 4444.9 110.6 4433.21 76.36 4420.06 76.36 4437.51 123.39 4437.51 123.39"/><path class="cls-6" d="M4608.1,170a24.59,24.59,0,0,1,14.52-5.12c7.22,0,10.59,2.56,10.59,10.14h-6.75c-5.12,0-11.14.46-15.8,2.74s-8,6.39-8,13.42c0,9,8.13,14,16.44,14,5.57,0,11.69-2.93,14.52-8.13h.18a56.5,56.5,0,0,0,.55,7h10.78c-.28-3.65-.46-6.94-.55-10.5s-.18-7-.18-11.78v-6c0-13.88-5.94-19.81-20.28-19.81a42.08,42.08,0,0,0-16.34,3.56l.36,10.5Zm6.21,20.45c0-7.21,8.13-8.12,13.61-8.12h5.29c0,3.65-.54,7-2.55,9.68a10.41,10.41,0,0,1-8.59,4.2c-4.38,0-7.76-1.74-7.76-5.76Z" transform="translate(-126.38 -80.65)"/><path class="cls-6" d="M4671.22,180.39c0-6.3,2.2-15,10.14-15s11,8.4,11,15-2.65,15.25-10.78,15.25-10.32-8.77-10.32-15.25ZM4692.77,204h11.87V135.55h-12.23v26.94h-.18c-3.66-4.47-7.95-6.57-14.07-6.57-14.42,0-19.72,11.5-19.72,24.47s5.3,24.75,19.72,24.75c5.75,0,10.78-1.83,14.43-6.4h.18V204Z" transform="translate(-126.38 -80.65)"/><path class="cls-5" d="M4781.48,157.65a56.53,56.53,0,0,0-13.34-1.73c-9.58,0-18.44,4.47-18.44,14.61,0,17,21.27,10.68,21.27,19.9,0,4.57-4.93,5.76-8,5.76a26.89,26.89,0,0,1-12.06-3.11l-.73,10a55.23,55.23,0,0,0,13.89,2c9.95,0,19.72-4.39,19.72-15.35,0-17-21.28-12.23-21.28-19.72,0-4,3.93-5.21,7.22-5.21a30.14,30.14,0,0,1,10.95,2l.83-9.22Z" transform="translate(-126.38 -80.65)"/><polygon class="cls-5" points="4596.19 123.39 4608.42 123.39 4608.42 76.36 4596.19 76.36 4596.19 123.39 4596.19 123.39"/><polygon class="cls-5" points="4596.18 67.78 4608.38 67.78 4608.38 55.57 4596.18 55.57 4596.18 67.78 4596.18 67.78"/><polygon class="cls-5" points="4395.12 67.77 4407.33 67.77 4407.33 55.57 4395.12 55.57 4395.12 67.77 4395.12 67.77"/><polygon class="cls-5" points="4395.12 123.39 4407.36 123.39 4407.36 76.36 4395.12 76.36 4395.12 123.39 4395.12 123.39"/><path class="cls-5" d="M4482.47,204h12V186.78c-.4-22.78,11.72-17.85,11.72-17.85V156c0-.13-9.21,1-11.59,8.34V157h-12.09v47Z" transform="translate(-126.38 -80.65)"/><polygon class="cls-5" points="4356 67.77 4368.2 67.77 4368.2 55.57 4356 55.57 4356 67.77 4356 67.77"/><path class="cls-5" d="M4443.21,189.89c0,9.31,5.3,15.25,14.89,15.25a32.23,32.23,0,0,0,9-1.1l-.37-9.68a10.9,10.9,0,0,1-5.57,1.28c-4.65,0-5.75-3.74-5.75-7.76V166h10.87v-9h-32.15v9h9v23.93Z" transform="translate(-126.38 -80.65)"/><polygon class="cls-5" points="4316.77 67.77 4328.98 67.77 4328.98 55.57 4316.77 55.57 4316.77 67.77 4316.77 67.77"/><path class="cls-5" d="M4816.87,157h6.39a12.35,12.35,0,0,1,3,.37,6.91,6.91,0,0,1,2.51,1.17,5.75,5.75,0,0,1,1.69,2.05,6.6,6.6,0,0,1,.63,3v.13a6.82,6.82,0,0,1-.63,3.06,5.7,5.7,0,0,1-1.69,2.06,6.91,6.91,0,0,1-2.51,1.17,12.36,12.36,0,0,1-3,.36h-3.65v9.13h-2.74Zm6.58,11.18a5.28,5.28,0,0,0,3.69-1.15,4.25,4.25,0,0,0,1.26-3.32v-.13a3.94,3.94,0,0,0-1.33-3.38,5.92,5.92,0,0,0-3.62-1h-3.84v9Z" transform="translate(-126.38 -80.65)"/><path class="cls-5" d="M4838.53,179.76a7.85,7.85,0,0,1-2.14-.29,4.89,4.89,0,0,1-1.75-.88,4.16,4.16,0,0,1-1.16-1.51,5.15,5.15,0,0,1-.43-2.17,4,4,0,0,1,.7-2.39,5.08,5.08,0,0,1,1.84-1.58,8.9,8.9,0,0,1,2.64-.86,17.27,17.27,0,0,1,3.07-.27h2.36v-1.19a4,4,0,0,0-.82-2.83,3.6,3.6,0,0,0-2.7-.86q-3.41,0-3.78,2.93h-2.61a5.65,5.65,0,0,1,.7-2.4,5.13,5.13,0,0,1,1.48-1.59,6.23,6.23,0,0,1,2-.88,9.8,9.8,0,0,1,2.31-.26,9.46,9.46,0,0,1,2.27.26,4.81,4.81,0,0,1,1.92.95,4.7,4.7,0,0,1,1.32,1.81,7,7,0,0,1,.51,2.86v10.86h-2.62v-2.08a6.19,6.19,0,0,1-2.11,1.77A6.68,6.68,0,0,1,4838.53,179.76Zm.25-2.08a6.69,6.69,0,0,0,1.94-.27,4.55,4.55,0,0,0,1.54-.77,3.71,3.71,0,0,0,1-1.24,3.59,3.59,0,0,0,.38-1.69v-2h-2.26a13.76,13.76,0,0,0-2.29.17,6.39,6.39,0,0,0-1.82.55,3,3,0,0,0-1.2,1,2.65,2.65,0,0,0-.42,1.53,2.85,2.85,0,0,0,.69,2A3.24,3.24,0,0,0,4838.78,177.68Z" transform="translate(-126.38 -80.65)"/><path class="cls-5" d="M4851,163h2.61v3a7.59,7.59,0,0,1,.87-1.28,5,5,0,0,1,1.11-1,5.3,5.3,0,0,1,1.48-.68,7.57,7.57,0,0,1,2-.28v2.45a11.4,11.4,0,0,0-2.23.32,4.15,4.15,0,0,0-1.72.85,3.69,3.69,0,0,0-1.08,1.59,7.11,7.11,0,0,0-.38,2.5v9H4851Z" transform="translate(-126.38 -80.65)"/><path class="cls-5" d="M4867.59,179.69a4.35,4.35,0,0,1-3.36-1.19,4.53,4.53,0,0,1-1.08-3.15V165.21h-2.36V163h2.36v-3.75h2.61V163h3.84v2.2h-3.84v9.89c0,1.59.68,2.39,2.05,2.39a5.16,5.16,0,0,0,1.1-.1,5.56,5.56,0,0,0,.91-.25v2.21a5.45,5.45,0,0,1-.91.25A7.86,7.86,0,0,1,4867.59,179.69Z" transform="translate(-126.38 -80.65)"/><path class="cls-5" d="M4887.73,179.76a8.21,8.21,0,0,1-3.24-.63,7.63,7.63,0,0,1-2.55-1.75,8.07,8.07,0,0,1-1.67-2.66,9.13,9.13,0,0,1-.6-3.34v-.25a9.1,9.1,0,0,1,.62-3.4,8.26,8.26,0,0,1,1.68-2.66,7.53,7.53,0,0,1,2.55-1.73,8.88,8.88,0,0,1,6.47,0,7.61,7.61,0,0,1,2.57,1.71,8.1,8.1,0,0,1,1.68,2.65,9.1,9.1,0,0,1,.61,3.4v.25a9.24,9.24,0,0,1-.61,3.42,8,8,0,0,1-1.7,2.66,7.71,7.71,0,0,1-2.57,1.71A8.32,8.32,0,0,1,4887.73,179.76Zm0-2.21a5.43,5.43,0,0,0,2.24-.44,4.62,4.62,0,0,0,1.7-1.25,5.69,5.69,0,0,0,1.07-2,8,8,0,0,0,.38-2.52v-.22a8.35,8.35,0,0,0-.38-2.57,5.46,5.46,0,0,0-1.09-2,4.79,4.79,0,0,0-1.7-1.25,5.46,5.46,0,0,0-2.22-.44,5.55,5.55,0,0,0-2.23.44,4.62,4.62,0,0,0-1.7,1.25,5.79,5.79,0,0,0-1.07,2,8.13,8.13,0,0,0-.38,2.55v.25a6.73,6.73,0,0,0,1.43,4.5A4.94,4.94,0,0,0,4887.76,177.55Z" transform="translate(-126.38 -80.65)"/><path class="cls-5" d="M4900.07,165.21h-2.36V163h2.36v-2.68a5.67,5.67,0,0,1,1.23-3.9A4.68,4.68,0,0,1,4905,155a5.86,5.86,0,0,1,1,.08c.27.06.58.14.91.24v2.23a4.34,4.34,0,0,0-.83-.25,5.69,5.69,0,0,0-1-.09,2.09,2.09,0,0,0-1.84.78,3.44,3.44,0,0,0-.56,2V163h4v2.2h-4v14.26h-2.61Z" transform="translate(-126.38 -80.65)"/><path class="cls-5" d="M4923,157h6.64l7.3,22.51h-5.32l-1.54-5h-8.15l-1.55,5h-4.78Zm0,13.89h5.95l-3-9.73Z" transform="translate(-126.38 -80.65)"/><path class="cls-5" d="M4945.37,179.82a10.15,10.15,0,0,1-3.35-.55,7.34,7.34,0,0,1-4.47-4.25,9.28,9.28,0,0,1-.65-3.57v-.26a9.23,9.23,0,0,1,.66-3.57,7.74,7.74,0,0,1,4.54-4.41,9.42,9.42,0,0,1,3.3-.58,11.52,11.52,0,0,1,2.76.33,6.9,6.9,0,0,1,2.4,1.09,6.1,6.1,0,0,1,1.74,2,7.51,7.51,0,0,1,.85,3h-4.32a3.28,3.28,0,0,0-1.05-2.11,3.49,3.49,0,0,0-2.28-.69,3.55,3.55,0,0,0-2.87,1.27,5.51,5.51,0,0,0-1.07,3.63v.25a5.64,5.64,0,0,0,1.06,3.73,3.65,3.65,0,0,0,3,1.26,3.74,3.74,0,0,0,2.38-.78,3.29,3.29,0,0,0,1.15-2.37h4.12a7.34,7.34,0,0,1-.66,2.69A5.92,5.92,0,0,1,4951,178a7.07,7.07,0,0,1-2.42,1.37A9.66,9.66,0,0,1,4945.37,179.82Z" transform="translate(-126.38 -80.65)"/><path class="cls-5" d="M4962.37,179.82a10.15,10.15,0,0,1-3.35-.55,7.27,7.27,0,0,1-4.47-4.25,9.28,9.28,0,0,1-.65-3.57v-.26a9.23,9.23,0,0,1,.66-3.57,7.76,7.76,0,0,1,4.53-4.41,9.48,9.48,0,0,1,3.31-.58,11.44,11.44,0,0,1,2.75.33,6.87,6.87,0,0,1,2.41,1.09,6.07,6.07,0,0,1,1.73,2,7.19,7.19,0,0,1,.85,3h-4.31a3.33,3.33,0,0,0-1.05-2.11,3.5,3.5,0,0,0-2.29-.69,3.54,3.54,0,0,0-2.86,1.27,5.51,5.51,0,0,0-1.07,3.63v.25a5.7,5.7,0,0,0,1,3.73,3.68,3.68,0,0,0,3,1.26,3.76,3.76,0,0,0,2.38-.78,3.25,3.25,0,0,0,1.14-2.37h4.13a7.76,7.76,0,0,1-.66,2.69A6,6,0,0,1,4968,178a7.07,7.07,0,0,1-2.42,1.37A9.71,9.71,0,0,1,4962.37,179.82Z" transform="translate(-126.38 -80.65)"/><path class="cls-5" d="M4979.49,179.82a10,10,0,0,1-3.43-.57,7.45,7.45,0,0,1-2.71-1.67,7.37,7.37,0,0,1-1.81-2.61,9.06,9.06,0,0,1-.64-3.52v-.26a9.2,9.2,0,0,1,.64-3.52,8.06,8.06,0,0,1,1.81-2.71,8.22,8.22,0,0,1,2.68-1.72,9.14,9.14,0,0,1,3.34-.61,9.37,9.37,0,0,1,3.05.49,7,7,0,0,1,2.55,1.49,7.33,7.33,0,0,1,1.76,2.6,9.88,9.88,0,0,1,.66,3.79v1.26h-11.86a4.78,4.78,0,0,0,1.15,3.2,4.63,4.63,0,0,0,5.35.49,2.83,2.83,0,0,0,1-1.67h4.31a5.87,5.87,0,0,1-2.44,4.11A9.27,9.27,0,0,1,4979.49,179.82Zm3.47-10.36a4.21,4.21,0,0,0-1-2.78,3.95,3.95,0,0,0-5.09.06,4.58,4.58,0,0,0-1.24,2.72Z" transform="translate(-126.38 -80.65)"/><path class="cls-5" d="M4989.19,163h4.56v2.61a5.6,5.6,0,0,1,2-2.11,6.06,6.06,0,0,1,3.4-.88,6.36,6.36,0,0,1,2.23.38,4.88,4.88,0,0,1,1.76,1.13,5.7,5.7,0,0,1,1.14,2,9,9,0,0,1,.4,2.85v10.48h-4.56v-9.82a3.77,3.77,0,0,0-.69-2.5,2.75,2.75,0,0,0-2.21-.8,3.47,3.47,0,0,0-2.45.89,3.54,3.54,0,0,0-1,2.73v9.5h-4.56Z" transform="translate(-126.38 -80.65)"/><path class="cls-5" d="M5013.36,179.79a5.48,5.48,0,0,1-4-1.31,5.18,5.18,0,0,1-1.36-3.89v-8.34h-2.1V163h2.1v-3.56h4.54V163H5016v3.24h-3.46v7.93a2.12,2.12,0,0,0,.45,1.47,1.82,1.82,0,0,0,1.37.49,5.28,5.28,0,0,0,.93-.08,4.12,4.12,0,0,0,.8-.24v3.53c-.31.1-.7.2-1.16.3A8.46,8.46,0,0,1,5013.36,179.79Z" transform="translate(-126.38 -80.65)"/><path class="cls-5" d="M5023.5,179.82a6.63,6.63,0,0,1-2.22-.36,4.8,4.8,0,0,1-1.78-1.12,5.26,5.26,0,0,1-1.18-1.94,8.25,8.25,0,0,1-.42-2.78V163h4.53v10a3.7,3.7,0,0,0,.72,2.47,2.68,2.68,0,0,0,2.14.83,3.53,3.53,0,0,0,2.44-.89,3.48,3.48,0,0,0,1-2.73V163h4.53v16.46h-4.53v-2.58a5.3,5.3,0,0,1-1.91,2.09A5.94,5.94,0,0,1,5023.5,179.82Z" transform="translate(-126.38 -80.65)"/><path class="cls-5" d="M5036.09,163h4.57v3.15a6,6,0,0,1,2-2.52,5.89,5.89,0,0,1,3.28-.88V167a6.81,6.81,0,0,0-3.94.91,3.72,3.72,0,0,0-1.38,3.31v8.24h-4.57Z" transform="translate(-126.38 -80.65)"/><path class="cls-5" d="M5055,179.82a10,10,0,0,1-3.43-.57,7.45,7.45,0,0,1-2.71-1.67,7.37,7.37,0,0,1-1.81-2.61,9.06,9.06,0,0,1-.64-3.52v-.26a9.2,9.2,0,0,1,.64-3.52,8.06,8.06,0,0,1,1.81-2.71,8.22,8.22,0,0,1,2.68-1.72,9.14,9.14,0,0,1,3.34-.61,9.37,9.37,0,0,1,3.05.49,7.11,7.11,0,0,1,2.55,1.49,7.33,7.33,0,0,1,1.76,2.6,9.88,9.88,0,0,1,.66,3.79v1.26h-11.86a4.83,4.83,0,0,0,1.14,3.2,4.64,4.64,0,0,0,5.36.49,2.83,2.83,0,0,0,1-1.67h4.31a5.87,5.87,0,0,1-2.44,4.11A9.27,9.27,0,0,1,5055,179.82Zm3.46-10.36a4.15,4.15,0,0,0-1-2.78,3.95,3.95,0,0,0-5.09.06,4.58,4.58,0,0,0-1.24,2.72Z" transform="translate(-126.38 -80.65)"/></svg>